solid stl_item0
  facet normal 0.5592 -0.82903 0
    outer loop
      vertex -81.028 39.787 2
      vertex -81.664 39.358 2
      vertex -81.664 39.358 1
    endloop
  endfacet
  facet normal 0.5592 -0.82903 0
    outer loop
      vertex -81.028 39.787 2
      vertex -81.664 39.358 1
      vertex -81.028 39.787 1
    endloop
  endfacet
  facet normal 0 0 1
    outer loop
      vertex -30.719 38.823 1
      vertex -30.25 39.945 1
      vertex -31.243 38.716 1
    endloop
  endfacet
  facet normal 0 0 -1
    outer loop
      vertex -81.132 37.473 0
      vertex -83.25 37.945 0
      vertex -81.025 37.998 0
    endloop
  endfacet
  facet normal 0.19902 -0.98 0
    outer loop
      vertex -81.028 39.787 1
      vertex -80.89171 39.81468 1
      vertex -81.028 39.787 2
    endloop
  endfacet
  facet normal 0.19902 -0.98 0
    outer loop
      vertex -80.25 39.945 2
      vertex -81.028 39.787 2
      vertex -80.89171 39.81468 1
    endloop
  endfacet
  facet normal 0.19902 -0.98 0
    outer loop
      vertex -80.25 39.945 2
      vertex -80.89171 39.81468 1
      vertex -80.25 39.945 1
    endloop
  endfacet
  facet normal 0 0 -1
    outer loop
      vertex -83.25 37.945 0
      vertex -83.014 39.112 0
      vertex -81.025 37.998 0
    endloop
  endfacet
  facet normal 0 0 1
    outer loop
      vertex -30.194 38.716 1
      vertex -30.25 39.945 1
      vertex -30.719 38.823 1
    endloop
  endfacet
  facet normal 0 0 -1
    outer loop
      vertex -80.306 38.716 0
      vertex -80.736 38.427 0
      vertex -81.418 40.709 0
    endloop
  endfacet
  facet normal 0 0 1
    outer loop
      vertex -29.765 38.427 1
      vertex -29.472 39.787 1
      vertex -30.194 38.716 1
    endloop
  endfacet
  facet normal 0 0 -1
    outer loop
      vertex -79.781 38.823 0
      vertex -80.306 38.716 0
      vertex -80.25 40.945 0
    endloop
  endfacet
  facet normal 0 0 -1
    outer loop
      vertex -81.418 40.709 0
      vertex -80.25 40.945 0
      vertex -80.306 38.716 0
    endloop
  endfacet
  facet normal 0 -1 0
    outer loop
      vertex -80.25 39.945 1
      vertex -61.136 39.945 1
      vertex -80.25 39.945 2
    endloop
  endfacet
  facet normal 0 0 1
    outer loop
      vertex -29.475 37.998 1
      vertex -28.407 38.722 1
      vertex -29.765 38.427 1
    endloop
  endfacet
  facet normal 0 0 1
    outer loop
      vertex -30.25 39.945 1
      vertex -30.194 38.716 1
      vertex -29.85178 39.86413 1
    endloop
  endfacet
  facet normal 0 1 0
    outer loop
      vertex -61.136 40.945 2
      vertex -80.25 40.945 1
      vertex -80.25 40.945 2
    endloop
  endfacet
  facet normal 0 0 1
    outer loop
      vertex -61.136 40.945 2
      vertex -80.25 39.945 2
      vertex -61.136 39.945 2
    endloop
  endfacet
  facet normal 0 0 -1
    outer loop
      vertex -79.781 38.823 0
      vertex -80.25 40.945 0
      vertex -79.257 38.716 0
    endloop
  endfacet
  facet normal 0 0 1
    outer loop
      vertex -29.369 37.473 1
      vertex -28.25 37.945 1
      vertex -29.475 37.998 1
    endloop
  endfacet
  facet normal 0 0 1
    outer loop
      vertex -29.85178 39.86413 1
      vertex -30.194 38.716 1
      vertex -29.472 39.787 1
    endloop
  endfacet
  facet normal 0 0 1
    outer loop
      vertex -30.25 39.945 2
      vertex -48.736 40.945 2
      vertex -48.736 39.945 2
    endloop
  endfacet
  facet normal 0 0 -1
    outer loop
      vertex -78.538 37.998 0
      vertex -78.827 38.427 0
      vertex -61.136 40.945 0
    endloop
  endfacet
  facet normal 0 0 -1
    outer loop
      vertex -79.257 38.716 0
      vertex -61.136 40.945 0
      vertex -78.827 38.427 0
    endloop
  endfacet
  facet normal 1 0 0
    outer loop
      vertex -27.25 32.768 0
      vertex -27.25 -48.345 1
      vertex -27.25 -48.345 0
    endloop
  endfacet
  facet normal 0 0 -1
    outer loop
      vertex -78.538 37.998 0
      vertex -61.136 40.945 0
      vertex -78.431 37.473 0
    endloop
  endfacet
  facet normal 0 0 1
    outer loop
      vertex -29.475 36.948 1
      vertex -28.25 37.945 1
      vertex -29.369 37.473 1
    endloop
  endfacet
  facet normal 0 0 1
    outer loop
      vertex -28.407 38.722 1
      vertex -29.475 37.998 1
      vertex -28.25 37.945 1
    endloop
  endfacet
  facet normal 0 0 1
    outer loop
      vertex -28.836 39.358 1
      vertex -29.765 38.427 1
      vertex -28.407 38.722 1
    endloop
  endfacet
  facet normal 0 0 1
    outer loop
      vertex -29.472 39.787 1
      vertex -29.765 38.427 1
      vertex -28.836 39.358 1
    endloop
  endfacet
  facet normal -0.82936 -0.55871 0
    outer loop
      vertex -78.827 38.427 1
      vertex -78.827 38.427 0
      vertex -78.538 37.998 0
    endloop
  endfacet
  facet normal -0.82936 -0.55871 0
    outer loop
      vertex -78.827 38.427 1
      vertex -78.538 37.998 0
      vertex -78.538 37.998 1
    endloop
  endfacet
  facet normal -0.19805 0.98019 0
    outer loop
      vertex -81.418 40.709 1
      vertex -81.418 40.709 2
      vertex -80.49053 40.8964 1
    endloop
  endfacet
  facet normal -0.19805 0.98019 0
    outer loop
      vertex -81.418 40.709 2
      vertex -80.25 40.945 2
      vertex -80.49053 40.8964 1
    endloop
  endfacet
  facet normal -0.19805 0.98019 0
    outer loop
      vertex -80.25 40.945 1
      vertex -80.49053 40.8964 1
      vertex -80.25 40.945 2
    endloop
  endfacet
  facet normal -0.55891 0.82923 0
    outer loop
      vertex -81.418 40.709 1
      vertex -82.372 40.066 1
      vertex -81.418 40.709 2
    endloop
  endfacet
  facet normal 0 0 1
    outer loop
      vertex -48.736 27.345 1
      vertex -31.243 36.229 1
      vertex -31.672 36.519 1
    endloop
  endfacet
  facet normal -0.97986 -0.1997 0
    outer loop
      vertex -78.538 37.998 1
      vertex -78.538 37.998 0
      vertex -78.431 37.473 0
    endloop
  endfacet
  facet normal -0.97986 -0.1997 0
    outer loop
      vertex -78.538 37.998 1
      vertex -78.431 37.473 0
      vertex -78.431 37.473 1
    endloop
  endfacet
  facet normal 0 1 0
    outer loop
      vertex -48.736 40.945 0
      vertex -48.736 40.945 1
      vertex -30.25 40.945 0
    endloop
  endfacet
  facet normal 0 1 0
    outer loop
      vertex -30.25 40.945 1
      vertex -30.25 40.945 0
      vertex -48.736 40.945 1
    endloop
  endfacet
  facet normal 0 1 0
    outer loop
      vertex -80.25 40.945 1
      vertex -61.136 40.945 1
      vertex -61.136 40.945 0
    endloop
  endfacet
  facet normal -0.97986 0.1997 0
    outer loop
      vertex -78.431 37.473 1
      vertex -78.431 37.473 0
      vertex -78.538 36.948 0
    endloop
  endfacet
  facet normal -0.97986 0.1997 0
    outer loop
      vertex -78.431 37.473 1
      vertex -78.538 36.948 0
      vertex -78.538 36.948 1
    endloop
  endfacet
  facet normal 0 0 1
    outer loop
      vertex -29.472 39.787 2
      vertex -29.082 40.709 2
      vertex -30.25 39.945 2
    endloop
  endfacet
  facet normal -1 0 0
    outer loop
      vertex -83.25 -22.90874 0
      vertex -83.25 37.945 1
      vertex -83.25 37.945 0
    endloop
  endfacet
  facet normal 0 0 1
    outer loop
      vertex -28.836 39.358 2
      vertex -28.128 40.066 2
      vertex -29.472 39.787 2
    endloop
  endfacet
  facet normal 0 0 1
    outer loop
      vertex -48.736 40.945 2
      vertex -30.25 39.945 2
      vertex -30.25 40.945 2
    endloop
  endfacet
  facet normal 0.19791 0.98022 0
    outer loop
      vertex -79.781 36.123 0
      vertex -80.306 36.229 0
      vertex -80.306 36.229 1
    endloop
  endfacet
  facet normal 0.19791 0.98022 0
    outer loop
      vertex -79.781 36.123 0
      vertex -80.306 36.229 1
      vertex -79.781 36.123 1
    endloop
  endfacet
  facet normal -1 0 0
    outer loop
      vertex -83.25 -48.345 0
      vertex -83.25 -48.345 1
      vertex -83.25 -22.90874 0
    endloop
  endfacet
  facet normal -1 0 0
    outer loop
      vertex -83.25 37.945 1
      vertex -83.25 -22.90874 0
      vertex -83.25 -48.345 1
    endloop
  endfacet
  facet normal 0 0 1
    outer loop
      vertex -30.25 40.945 2
      vertex -30.25 39.945 2
      vertex -29.082 40.709 2
    endloop
  endfacet
  facet normal 0 0 1
    outer loop
      vertex -28.407 38.722 2
      vertex -28.128 40.066 2
      vertex -28.836 39.358 2
    endloop
  endfacet
  facet normal 0.55914 0.82907 0
    outer loop
      vertex -80.306 36.229 1
      vertex -80.306 36.229 0
      vertex -80.736 36.519 0
    endloop
  endfacet
  facet normal 0.55914 0.82907 0
    outer loop
      vertex -80.306 36.229 1
      vertex -80.736 36.519 0
      vertex -80.736 36.519 1
    endloop
  endfacet
  facet normal 0 0 1
    outer loop
      vertex -31.243 -19.614 1
      vertex -48.736 27.345 1
      vertex -31.672 -19.904 1
    endloop
  endfacet
  facet normal 0 0 1
    outer loop
      vertex -30.719 -19.508 1
      vertex -48.736 27.345 1
      vertex -31.243 -19.614 1
    endloop
  endfacet
  facet normal 0 0 1
    outer loop
      vertex -29.082 40.709 2
      vertex -29.472 39.787 2
      vertex -28.128 40.066 2
    endloop
  endfacet
  facet normal 0 0 1
    outer loop
      vertex -28.25 37.945 2
      vertex -27.25 37.945 2
      vertex -28.407 38.722 2
    endloop
  endfacet
  facet normal 0 0 1
    outer loop
      vertex -27.25 37.945 2
      vertex -27.485 39.112 2
      vertex -28.407 38.722 2
    endloop
  endfacet
  facet normal 0 0 1
    outer loop
      vertex -28.128 40.066 2
      vertex -28.407 38.722 2
      vertex -27.485 39.112 2
    endloop
  endfacet
  facet normal 0 0 1
    outer loop
      vertex -30.194 -19.614 1
      vertex -28.25 35.62355 1
      vertex -30.719 -19.508 1
    endloop
  endfacet
  facet normal -1 0 0
    outer loop
      vertex -83.25 -48.345 2
      vertex -83.25 37.945 2
      vertex -83.25 37.945 1
    endloop
  endfacet
  facet normal -1 0 0
    outer loop
      vertex -83.25 -48.345 1
      vertex -83.25 -48.345 2
      vertex -83.25 37.945 1
    endloop
  endfacet
  facet normal 0 1 0
    outer loop
      vertex -80.25 40.945 1
      vertex -61.136 40.945 0
      vertex -80.25 40.945 0
    endloop
  endfacet
  facet normal 0 0 1
    outer loop
      vertex -29.765 -19.904 1
      vertex -28.25 35.62355 1
      vertex -30.194 -19.614 1
    endloop
  endfacet
  facet normal 0.98016 0.19822 0
    outer loop
      vertex -27.25 37.945 0
      vertex -27.486 39.112 0
      vertex -27.486 39.112 1
    endloop
  endfacet
  facet normal 0.98016 0.19822 0
    outer loop
      vertex -27.25 37.945 0
      vertex -27.486 39.112 1
      vertex -27.25 37.945 1
    endloop
  endfacet
  facet normal 0 0 1
    outer loop
      vertex -31.667 -44.541 1
      vertex -28.25 -47.345 1
      vertex -30.668 -44.541 1
    endloop
  endfacet
  facet normal -0.55914 0.82907 0
    outer loop
      vertex -78.827 36.519 1
      vertex -78.827 36.519 0
      vertex -79.257 36.229 0
    endloop
  endfacet
  facet normal -0.55914 0.82907 0
    outer loop
      vertex -78.827 36.519 1
      vertex -79.257 36.229 0
      vertex -79.257 36.229 1
    endloop
  endfacet
  facet normal 0 -1 0
    outer loop
      vertex -83.25 -48.345 1
      vertex -27.25 -48.345 0
      vertex -27.25 -48.345 1
    endloop
  endfacet
  facet normal 0.82923 0.55891 0
    outer loop
      vertex -27.486 39.112 0
      vertex -28.129 40.066 0
      vertex -28.129 40.066 1
    endloop
  endfacet
  facet normal 0.82923 0.55891 0
    outer loop
      vertex -27.486 39.112 0
      vertex -28.129 40.066 1
      vertex -27.486 39.112 1
    endloop
  endfacet
  facet normal 0 0 1
    outer loop
      vertex -40.468 -36.846 1
      vertex -31.667 -44.541 1
      vertex -31.667 -36.846 1
    endloop
  endfacet
  facet normal -0.19827 0.98015 0
    outer loop
      vertex -79.257 36.229 1
      vertex -79.257 36.229 0
      vertex -79.781 36.123 0
    endloop
  endfacet
  facet normal -0.19827 0.98015 0
    outer loop
      vertex -79.257 36.229 1
      vertex -79.781 36.123 0
      vertex -79.781 36.123 1
    endloop
  endfacet
  facet normal 0.55931 0.82896 0
    outer loop
      vertex -29.082 40.709 1
      vertex -28.76532 40.49533 1
      vertex -29.082 40.709 0
    endloop
  endfacet
  facet normal 0.55931 0.82896 0
    outer loop
      vertex -28.75956 40.49145 1
      vertex -29.082 40.709 0
      vertex -28.76532 40.49533 1
    endloop
  endfacet
  facet normal 0 -1 0
    outer loop
      vertex -27.25 -48.345 0
      vertex -83.25 -48.345 1
      vertex -83.25 -48.345 0
    endloop
  endfacet
  facet normal 0.55931 0.82896 0
    outer loop
      vertex -28.129 40.066 0
      vertex -29.082 40.709 0
      vertex -28.75956 40.49145 1
    endloop
  endfacet
  facet normal 0.55931 0.82896 0
    outer loop
      vertex -28.129 40.066 0
      vertex -28.75956 40.49145 1
      vertex -28.129 40.066 1
    endloop
  endfacet
  facet normal 0 0 -1
    outer loop
      vertex -78.538 36.948 0
      vertex -61.136 27.345 0
      vertex -78.827 36.519 0
    endloop
  endfacet
  facet normal 1 0 0
    outer loop
      vertex -82.25 0 1
      vertex -82.25 37.945 1
      vertex -82.25 37.945 2
    endloop
  endfacet
  facet normal 0.19805 0.98019 0
    outer loop
      vertex -30.06236 40.90709 1
      vertex -29.85227 40.86464 1
      vertex -30.25 40.945 0
    endloop
  endfacet
  facet normal 0.19805 0.98019 0
    outer loop
      vertex -30.06236 40.90709 1
      vertex -30.25 40.945 0
      vertex -30.25 40.945 1
    endloop
  endfacet
  facet normal 0 0 1
    outer loop
      vertex -28.25 -47.345 1
      vertex -30.668 -35.847 1
      vertex -30.668 -44.541 1
    endloop
  endfacet
  facet normal 0 0 -1
    outer loop
      vertex -79.257 36.229 0
      vertex -61.136 27.345 0
      vertex -79.781 -19.508 0
    endloop
  endfacet
  facet normal 0 0 -1
    outer loop
      vertex -79.257 -19.614 0
      vertex -79.781 -19.508 0
      vertex -61.136 27.345 0
    endloop
  endfacet
  facet normal 0 0 -1
    outer loop
      vertex -78.827 36.519 0
      vertex -61.136 27.345 0
      vertex -79.257 36.229 0
    endloop
  endfacet
  facet normal 0 0 -1
    outer loop
      vertex -79.781 36.123 0
      vertex -79.257 36.229 0
      vertex -79.781 -19.508 0
    endloop
  endfacet
  facet normal -0.55891 0.82923 0
    outer loop
      vertex -82.372 40.066 1
      vertex -82.372 40.066 2
      vertex -81.418 40.709 2
    endloop
  endfacet
  facet normal 0.19805 0.98019 0
    outer loop
      vertex -29.082 40.709 0
      vertex -30.25 40.945 0
      vertex -29.85227 40.86464 1
    endloop
  endfacet
  facet normal 0.19805 0.98019 0
    outer loop
      vertex -29.082 40.709 0
      vertex -29.85227 40.86464 1
      vertex -29.082 40.709 1
    endloop
  endfacet
  facet normal 0 0 -1
    outer loop
      vertex -81.418 40.709 0
      vertex -80.736 38.427 0
      vertex -82.371 40.066 0
    endloop
  endfacet
  facet normal 0 0 -1
    outer loop
      vertex -82.371 40.066 0
      vertex -80.736 38.427 0
      vertex -83.014 39.112 0
    endloop
  endfacet
  facet normal 0 0 -1
    outer loop
      vertex -81.025 37.998 0
      vertex -83.014 39.112 0
      vertex -80.736 38.427 0
    endloop
  endfacet
  facet normal 0 0 -1
    outer loop
      vertex -83.25 37.945 0
      vertex -81.132 37.473 0
      vertex -81.025 36.948 0
    endloop
  endfacet
  facet normal 0 0 -1
    outer loop
      vertex -79.781 -19.508 0
      vertex -80.306 -19.614 0
      vertex -80.306 36.229 0
    endloop
  endfacet
  facet normal -1 0 0
    outer loop
      vertex -28.25 -47.345 1
      vertex -28.25 -47.345 2
      vertex -28.25 35.62355 1
    endloop
  endfacet
  facet normal 0 0 1
    outer loop
      vertex -41.467 -35.847 1
      vertex -49.85 -35.847 1
      vertex -41.467 -44.541 1
    endloop
  endfacet
  facet normal 0 0 1
    outer loop
      vertex -49.85 -35.847 1
      vertex -49.85 -44.541 1
      vertex -41.467 -44.541 1
    endloop
  endfacet
  facet normal 0 0 -1
    outer loop
      vertex -80.306 36.229 0
      vertex -79.781 36.123 0
      vertex -79.781 -19.508 0
    endloop
  endfacet
  facet normal 0 -1 0
    outer loop
      vertex -30.668 -44.541 1
      vertex -30.668 -44.541 2
      vertex -31.667 -44.541 2
    endloop
  endfacet
  facet normal 0 -1 0
    outer loop
      vertex -30.668 -44.541 1
      vertex -31.667 -44.541 2
      vertex -31.667 -44.541 1
    endloop
  endfacet
  facet normal 0.82847 0.56004 0
    outer loop
      vertex -31.962 36.948 1
      vertex -31.672 36.519 1
      vertex -31.962 36.948 0
    endloop
  endfacet
  facet normal 0 -1 0
    outer loop
      vertex -31.667 -36.846 2
      vertex -40.468 -36.846 1
      vertex -31.667 -36.846 1
    endloop
  endfacet
  facet normal -0.82936 0.55871 0
    outer loop
      vertex -29.475 36.948 0
      vertex -29.764 36.519 1
      vertex -29.475 36.948 1
    endloop
  endfacet
  facet normal 0 1 0
    outer loop
      vertex -41.467 -35.847 2
      vertex -30.668 -35.847 2
      vertex -30.668 -35.847 1
    endloop
  endfacet
  facet normal 0 0 1
    outer loop
      vertex -28.25 37.945 1
      vertex -29.475 36.948 1
      vertex -28.25 35.62355 1
    endloop
  endfacet
  facet normal 0 0 1
    outer loop
      vertex -30.193 36.229 1
      vertex -28.25 35.62355 1
      vertex -29.764 36.519 1
    endloop
  endfacet
  facet normal 0 0 -1
    outer loop
      vertex -28.88115 -20.50147 0
      vertex -29.369 -20.858 0
      vertex -29.475 -20.333 0
    endloop
  endfacet
  facet normal -1 0 0
    outer loop
      vertex -31.667 -36.846 2
      vertex -31.667 -36.846 1
      vertex -31.667 -44.541 1
    endloop
  endfacet
  facet normal -1 0 0
    outer loop
      vertex -31.667 -36.846 2
      vertex -31.667 -44.541 1
      vertex -31.667 -44.541 2
    endloop
  endfacet
  facet normal 0.98022 0.19791 0
    outer loop
      vertex -32.068 37.473 1
      vertex -31.962 36.948 1
      vertex -31.962 36.948 0
    endloop
  endfacet
  facet normal 0.98022 0.19791 0
    outer loop
      vertex -32.068 37.473 1
      vertex -31.962 36.948 0
      vertex -32.068 37.473 0
    endloop
  endfacet
  facet normal 0 0 1
    outer loop
      vertex -30.719 36.123 1
      vertex -30.719 -19.508 1
      vertex -30.193 36.229 1
    endloop
  endfacet
  facet normal 1 0 0
    outer loop
      vertex -30.668 -35.847 1
      vertex -30.668 -35.847 2
      vertex -30.668 -44.541 2
    endloop
  endfacet
  facet normal 1 0 0
    outer loop
      vertex -30.668 -35.847 1
      vertex -30.668 -44.541 2
      vertex -30.668 -44.541 1
    endloop
  endfacet
  facet normal 0 0 -1
    outer loop
      vertex -29.475 -21.383 0
      vertex -27.25 -48.345 0
      vertex -29.764 -21.812 0
    endloop
  endfacet
  facet normal 0.98022 -0.19791 0
    outer loop
      vertex -31.962 37.998 1
      vertex -32.068 37.473 1
      vertex -32.068 37.473 0
    endloop
  endfacet
  facet normal 0.98022 -0.19791 0
    outer loop
      vertex -31.962 37.998 1
      vertex -32.068 37.473 0
      vertex -31.962 37.998 0
    endloop
  endfacet
  facet normal 0 0 1
    outer loop
      vertex -48.736 27.345 1
      vertex -30.719 -19.508 1
      vertex -31.243 36.229 1
    endloop
  endfacet
  facet normal 0.82847 -0.56004 0
    outer loop
      vertex -31.672 38.427 1
      vertex -31.962 37.998 1
      vertex -31.962 37.998 0
    endloop
  endfacet
  facet normal 0.82847 -0.56004 0
    outer loop
      vertex -31.672 38.427 1
      vertex -31.962 37.998 0
      vertex -31.672 38.427 0
    endloop
  endfacet
  facet normal 0 0 -1
    outer loop
      vertex -30.193 -22.101 0
      vertex -29.764 -21.812 0
      vertex -27.25 -48.345 0
    endloop
  endfacet
  facet normal -1 0 0
    outer loop
      vertex -28.25 37.945 2
      vertex -28.25 35.62355 1
      vertex -28.25 -47.345 2
    endloop
  endfacet
  facet normal 0 0 -1
    outer loop
      vertex -27.25 -48.345 0
      vertex -30.719 -22.207 0
      vertex -30.193 -22.101 0
    endloop
  endfacet
  facet normal 0.55871 -0.82936 0
    outer loop
      vertex -31.243 38.716 1
      vertex -31.672 38.427 1
      vertex -31.672 38.427 0
    endloop
  endfacet
  facet normal 0.55871 -0.82936 0
    outer loop
      vertex -31.243 38.716 1
      vertex -31.672 38.427 0
      vertex -31.243 38.716 0
    endloop
  endfacet
  facet normal 0 0 1
    outer loop
      vertex -30.25 39.945 1
      vertex -48.736 39.945 1
      vertex -31.243 38.716 1
    endloop
  endfacet
  facet normal 0 0 1
    outer loop
      vertex -31.962 37.998 1
      vertex -31.672 38.427 1
      vertex -48.736 39.945 1
    endloop
  endfacet
  facet normal 0 0 1
    outer loop
      vertex -31.672 38.427 1
      vertex -31.243 38.716 1
      vertex -48.736 39.945 1
    endloop
  endfacet
  facet normal 1 0 0
    outer loop
      vertex -49.85 -44.541 2
      vertex -49.85 -44.541 1
      vertex -49.85 -35.847 1
    endloop
  endfacet
  facet normal 1 0 0
    outer loop
      vertex -49.85 -44.541 2
      vertex -49.85 -35.847 1
      vertex -49.85 -35.847 2
    endloop
  endfacet
  facet normal 0 0 -1
    outer loop
      vertex -30.719 -22.207 0
      vertex -27.25 -48.345 0
      vertex -31.243 -22.101 0
    endloop
  endfacet
  facet normal 0.20007 -0.97978 0
    outer loop
      vertex -30.719 38.823 1
      vertex -31.243 38.716 1
      vertex -31.243 38.716 0
    endloop
  endfacet
  facet normal 0.20007 -0.97978 0
    outer loop
      vertex -30.719 38.823 1
      vertex -31.243 38.716 0
      vertex -30.719 38.823 0
    endloop
  endfacet
  facet normal -0.55931 0.82896 0
    outer loop
      vertex -82.371 40.066 1
      vertex -82.25 40.14764 1
      vertex -82.371 40.066 0
    endloop
  endfacet
  facet normal -0.55931 0.82896 0
    outer loop
      vertex -82.25 40.14764 1
      vertex -81.92 40.3703 1
      vertex -82.371 40.066 0
    endloop
  endfacet
  facet normal -0.55931 0.82896 0
    outer loop
      vertex -81.418 40.709 0
      vertex -82.371 40.066 0
      vertex -81.92 40.3703 1
    endloop
  endfacet
  facet normal 0 1 0
    outer loop
      vertex -49.85 -35.847 2
      vertex -60.65 -35.847 1
      vertex -60.65 -35.847 2
    endloop
  endfacet
  facet normal 0 0 1
    outer loop
      vertex -30.719 36.123 1
      vertex -31.243 36.229 1
      vertex -30.719 -19.508 1
    endloop
  endfacet
  facet normal -0.82923 0.55891 0
    outer loop
      vertex -82.371 40.066 0
      vertex -83.014 39.112 0
      vertex -83.014 39.112 1
    endloop
  endfacet
  facet normal -0.82923 0.55891 0
    outer loop
      vertex -82.371 40.066 0
      vertex -83.014 39.112 1
      vertex -82.371 40.066 1
    endloop
  endfacet
  facet normal -0.1997 -0.97986 0
    outer loop
      vertex -30.194 38.716 1
      vertex -30.719 38.823 1
      vertex -30.719 38.823 0
    endloop
  endfacet
  facet normal -0.1997 -0.97986 0
    outer loop
      vertex -30.194 38.716 1
      vertex -30.719 38.823 0
      vertex -30.194 38.716 0
    endloop
  endfacet
  facet normal -0.98016 0.19822 0
    outer loop
      vertex -83.014 39.112 0
      vertex -83.25 37.945 0
      vertex -83.25 37.945 1
    endloop
  endfacet
  facet normal -0.98016 0.19822 0
    outer loop
      vertex -83.014 39.112 0
      vertex -83.25 37.945 1
      vertex -83.014 39.112 1
    endloop
  endfacet
  facet normal 0 1 0
    outer loop
      vertex -49.85 -35.847 1
      vertex -60.65 -35.847 1
      vertex -49.85 -35.847 2
    endloop
  endfacet
  facet normal 0 0 -1
    outer loop
      vertex -27.25 37.945 1
      vertex -27.486 39.112 1
      vertex -27.485 39.112 1
    endloop
  endfacet
  facet normal -0.55871 -0.82936 0
    outer loop
      vertex -29.765 38.427 1
      vertex -30.194 38.716 1
      vertex -30.194 38.716 0
    endloop
  endfacet
  facet normal -0.55871 -0.82936 0
    outer loop
      vertex -29.765 38.427 1
      vertex -30.194 38.716 0
      vertex -29.765 38.427 0
    endloop
  endfacet
  facet normal -0.82847 -0.56004 0
    outer loop
      vertex -29.765 -19.904 0
      vertex -29.475 -20.333 0
      vertex -29.475 -20.333 1
    endloop
  endfacet
  facet normal -0.82847 -0.56004 0
    outer loop
      vertex -29.765 -19.904 0
      vertex -29.475 -20.333 1
      vertex -29.765 -19.904 1
    endloop
  endfacet
  facet normal 0 0 -1
    outer loop
      vertex -27.486 39.112 1
      vertex -28.129 40.066 1
      vertex -28.128 40.066 1
    endloop
  endfacet
  facet normal 0 0 -1
    outer loop
      vertex -27.486 39.112 1
      vertex -28.128 40.066 1
      vertex -27.485 39.112 1
    endloop
  endfacet
  facet normal -0.82847 -0.56004 0
    outer loop
      vertex -29.765 38.427 1
      vertex -29.765 38.427 0
      vertex -29.475 37.998 0
    endloop
  endfacet
  facet normal -0.82847 -0.56004 0
    outer loop
      vertex -29.765 38.427 1
      vertex -29.475 37.998 0
      vertex -29.475 37.998 1
    endloop
  endfacet
  facet normal -0.98022 -0.19791 0
    outer loop
      vertex -29.475 -20.333 1
      vertex -29.475 -20.333 0
      vertex -29.369 -20.858 0
    endloop
  endfacet
  facet normal -0.98022 -0.19791 0
    outer loop
      vertex -29.475 -20.333 1
      vertex -29.369 -20.858 0
      vertex -29.369 -20.858 1
    endloop
  endfacet
  facet normal 0 -1 0
    outer loop
      vertex -59.651 -44.541 1
      vertex -59.651 -44.541 2
      vertex -60.65 -44.541 2
    endloop
  endfacet
  facet normal 0 -1 0
    outer loop
      vertex -59.651 -44.541 1
      vertex -60.65 -44.541 2
      vertex -60.65 -44.541 1
    endloop
  endfacet
  facet normal 0 0 -1
    outer loop
      vertex -29.082 40.709 1
      vertex -28.128 40.066 1
      vertex -28.76532 40.49533 1
    endloop
  endfacet
  facet normal 0 0 -1
    outer loop
      vertex -28.75956 40.49145 1
      vertex -28.76532 40.49533 1
      vertex -28.128 40.066 1
    endloop
  endfacet
  facet normal 0 0 -1
    outer loop
      vertex -28.129 40.066 1
      vertex -28.75956 40.49145 1
      vertex -28.128 40.066 1
    endloop
  endfacet
  facet normal -0.98022 -0.19791 0
    outer loop
      vertex -29.475 37.998 1
      vertex -29.475 37.998 0
      vertex -29.369 37.473 0
    endloop
  endfacet
  facet normal -0.98022 -0.19791 0
    outer loop
      vertex -29.475 37.998 1
      vertex -29.369 37.473 0
      vertex -29.369 37.473 1
    endloop
  endfacet
  facet normal -0.98022 0.19791 0
    outer loop
      vertex -29.369 -20.858 1
      vertex -29.369 -20.858 0
      vertex -29.475 -21.383 0
    endloop
  endfacet
  facet normal -0.98022 0.19791 0
    outer loop
      vertex -29.369 -20.858 1
      vertex -29.475 -21.383 0
      vertex -29.475 -21.383 1
    endloop
  endfacet
  facet normal 0 -1 0
    outer loop
      vertex -50.851 -36.846 2
      vertex -59.651 -36.846 2
      vertex -59.651 -36.846 1
    endloop
  endfacet
  facet normal 0 -1 0
    outer loop
      vertex -50.851 -36.846 2
      vertex -59.651 -36.846 1
      vertex -50.851 -36.846 1
    endloop
  endfacet
  facet normal -0.82936 0.55871 0
    outer loop
      vertex -29.475 -21.383 1
      vertex -29.475 -21.383 0
      vertex -29.764 -21.812 0
    endloop
  endfacet
  facet normal -0.82936 0.55871 0
    outer loop
      vertex -29.475 -21.383 1
      vertex -29.764 -21.812 0
      vertex -29.764 -21.812 1
    endloop
  endfacet
  facet normal -0.98022 0.19791 0
    outer loop
      vertex -29.369 37.473 1
      vertex -29.369 37.473 0
      vertex -29.475 36.948 0
    endloop
  endfacet
  facet normal -0.98022 0.19791 0
    outer loop
      vertex -29.369 37.473 1
      vertex -29.475 36.948 0
      vertex -29.475 36.948 1
    endloop
  endfacet
  facet normal 1 0 0
    outer loop
      vertex -59.651 -36.846 1
      vertex -59.651 -36.846 2
      vertex -59.651 -44.541 2
    endloop
  endfacet
  facet normal 1 0 0
    outer loop
      vertex -59.651 -36.846 1
      vertex -59.651 -44.541 2
      vertex -59.651 -44.541 1
    endloop
  endfacet
  facet normal 0.56004 0.82847 0
    outer loop
      vertex -31.243 36.229 0
      vertex -31.672 36.519 0
      vertex -31.672 36.519 1
    endloop
  endfacet
  facet normal 0.56004 0.82847 0
    outer loop
      vertex -31.243 36.229 0
      vertex -31.672 36.519 1
      vertex -31.243 36.229 1
    endloop
  endfacet
  facet normal -0.55871 0.82936 0
    outer loop
      vertex -29.764 -21.812 1
      vertex -29.764 -21.812 0
      vertex -30.193 -22.101 0
    endloop
  endfacet
  facet normal -0.55871 0.82936 0
    outer loop
      vertex -29.764 -21.812 1
      vertex -30.193 -22.101 0
      vertex -30.193 -22.101 1
    endloop
  endfacet
  facet normal -1 0 0
    outer loop
      vertex -60.65 -35.847 1
      vertex -60.65 -44.541 1
      vertex -60.65 -44.541 2
    endloop
  endfacet
  facet normal -1 0 0
    outer loop
      vertex -60.65 -35.847 1
      vertex -60.65 -44.541 2
      vertex -60.65 -35.847 2
    endloop
  endfacet
  facet normal 0.82847 0.56004 0
    outer loop
      vertex -31.672 36.519 1
      vertex -31.672 36.519 0
      vertex -31.962 36.948 0
    endloop
  endfacet
  facet normal -0.19755 0.98029 0
    outer loop
      vertex -30.193 -22.101 1
      vertex -30.193 -22.101 0
      vertex -30.719 -22.207 0
    endloop
  endfacet
  facet normal -0.19755 0.98029 0
    outer loop
      vertex -30.193 -22.101 1
      vertex -30.719 -22.207 0
      vertex -30.719 -22.207 1
    endloop
  endfacet
  facet normal -1 0 0
    outer loop
      vertex -50.851 -36.846 2
      vertex -50.851 -36.846 1
      vertex -50.851 -44.541 1
    endloop
  endfacet
  facet normal -1 0 0
    outer loop
      vertex -50.851 -36.846 2
      vertex -50.851 -44.541 1
      vertex -50.851 -44.541 2
    endloop
  endfacet
  facet normal -0.82936 0.55871 0
    outer loop
      vertex -29.475 36.948 0
      vertex -29.764 36.519 0
      vertex -29.764 36.519 1
    endloop
  endfacet
  facet normal 0 -1 0
    outer loop
      vertex -49.85 -44.541 2
      vertex -50.851 -44.541 2
      vertex -50.851 -44.541 1
    endloop
  endfacet
  facet normal 0 -1 0
    outer loop
      vertex -49.85 -44.541 2
      vertex -50.851 -44.541 1
      vertex -49.85 -44.541 1
    endloop
  endfacet
  facet normal 0.19827 0.98015 0
    outer loop
      vertex -30.719 -22.207 1
      vertex -30.719 -22.207 0
      vertex -31.243 -22.101 0
    endloop
  endfacet
  facet normal 0.19827 0.98015 0
    outer loop
      vertex -30.719 -22.207 1
      vertex -31.243 -22.101 0
      vertex -31.243 -22.101 1
    endloop
  endfacet
  facet normal -0.56004 0.82847 0
    outer loop
      vertex -29.764 36.519 1
      vertex -29.764 36.519 0
      vertex -30.193 36.229 0
    endloop
  endfacet
  facet normal -0.56004 0.82847 0
    outer loop
      vertex -29.764 36.519 1
      vertex -30.193 36.229 0
      vertex -30.193 36.229 1
    endloop
  endfacet
  facet normal 0.55871 0.82936 0
    outer loop
      vertex -31.243 -22.101 1
      vertex -31.243 -22.101 0
      vertex -31.672 -21.812 0
    endloop
  endfacet
  facet normal 0.55871 0.82936 0
    outer loop
      vertex -31.243 -22.101 1
      vertex -31.672 -21.812 0
      vertex -31.672 -21.812 1
    endloop
  endfacet
  facet normal -1 0 0
    outer loop
      vertex -41.467 -35.847 2
      vertex -41.467 -35.847 1
      vertex -41.467 -44.541 1
    endloop
  endfacet
  facet normal -1 0 0
    outer loop
      vertex -41.467 -35.847 2
      vertex -41.467 -44.541 1
      vertex -41.467 -44.541 2
    endloop
  endfacet
  facet normal -0.19755 0.98029 0
    outer loop
      vertex -30.193 36.229 1
      vertex -30.193 36.229 0
      vertex -30.719 36.123 0
    endloop
  endfacet
  facet normal -0.19755 0.98029 0
    outer loop
      vertex -30.193 36.229 1
      vertex -30.719 36.123 0
      vertex -30.719 36.123 1
    endloop
  endfacet
  facet normal 0.82847 0.56004 0
    outer loop
      vertex -31.962 -21.383 1
      vertex -31.672 -21.812 1
      vertex -31.672 -21.812 0
    endloop
  endfacet
  facet normal 0.82847 0.56004 0
    outer loop
      vertex -31.962 -21.383 1
      vertex -31.672 -21.812 0
      vertex -31.962 -21.383 0
    endloop
  endfacet
  facet normal 0.19827 0.98015 0
    outer loop
      vertex -30.719 36.123 1
      vertex -30.719 36.123 0
      vertex -31.243 36.229 0
    endloop
  endfacet
  facet normal 0.19827 0.98015 0
    outer loop
      vertex -30.719 36.123 1
      vertex -31.243 36.229 0
      vertex -31.243 36.229 1
    endloop
  endfacet
  facet normal 0 0 1
    outer loop
      vertex -80.25 40.945 2
      vertex -81.418 40.709 2
      vertex -80.25 39.945 2
    endloop
  endfacet
  facet normal 0 0 1
    outer loop
      vertex -81.028 39.787 2
      vertex -82.372 40.066 2
      vertex -81.664 39.358 2
    endloop
  endfacet
  facet normal 0 -1 0
    outer loop
      vertex -40.468 -44.541 1
      vertex -40.468 -44.541 2
      vertex -41.467 -44.541 2
    endloop
  endfacet
  facet normal 0 -1 0
    outer loop
      vertex -40.468 -44.541 1
      vertex -41.467 -44.541 2
      vertex -41.467 -44.541 1
    endloop
  endfacet
  facet normal 0.98022 0.19791 0
    outer loop
      vertex -32.068 -20.858 1
      vertex -31.962 -21.383 1
      vertex -31.962 -21.383 0
    endloop
  endfacet
  facet normal 0.98022 0.19791 0
    outer loop
      vertex -32.068 -20.858 1
      vertex -31.962 -21.383 0
      vertex -32.068 -20.858 0
    endloop
  endfacet
  facet normal 0 0 1
    outer loop
      vertex -81.92 38.97847 1
      vertex -82.093 38.722 1
      vertex -81.025 37.998 1
    endloop
  endfacet
  facet normal 0 -1 0
    outer loop
      vertex -31.667 -36.846 2
      vertex -40.468 -36.846 2
      vertex -40.468 -36.846 1
    endloop
  endfacet
  facet normal 0 0 1
    outer loop
      vertex -81.028 39.787 2
      vertex -80.25 39.945 2
      vertex -81.418 40.709 2
    endloop
  endfacet
  facet normal 0 0 1
    outer loop
      vertex -80.25 40.945 2
      vertex -80.25 39.945 2
      vertex -61.136 40.945 2
    endloop
  endfacet
  facet normal 0.98022 -0.19791 0
    outer loop
      vertex -31.962 -20.333 1
      vertex -32.068 -20.858 1
      vertex -32.068 -20.858 0
    endloop
  endfacet
  facet normal 0.98022 -0.19791 0
    outer loop
      vertex -31.962 -20.333 1
      vertex -32.068 -20.858 0
      vertex -31.962 -20.333 0
    endloop
  endfacet
  facet normal 0 1 0
    outer loop
      vertex -30.668 -35.847 1
      vertex -41.467 -35.847 1
      vertex -41.467 -35.847 2
    endloop
  endfacet
  facet normal 0 0 1
    outer loop
      vertex -80.736 38.427 1
      vertex -81.92 38.97847 1
      vertex -81.025 37.998 1
    endloop
  endfacet
  facet normal 0.82847 -0.56004 0
    outer loop
      vertex -31.672 -19.904 1
      vertex -31.962 -20.333 1
      vertex -31.962 -20.333 0
    endloop
  endfacet
  facet normal 0.82847 -0.56004 0
    outer loop
      vertex -31.672 -19.904 1
      vertex -31.962 -20.333 0
      vertex -31.672 -19.904 0
    endloop
  endfacet
  facet normal 1 0 0
    outer loop
      vertex -40.468 -36.846 1
      vertex -40.468 -36.846 2
      vertex -40.468 -44.541 2
    endloop
  endfacet
  facet normal 1 0 0
    outer loop
      vertex -40.468 -36.846 1
      vertex -40.468 -44.541 2
      vertex -40.468 -44.541 1
    endloop
  endfacet
  facet normal 0 0 1
    outer loop
      vertex -83.015 39.112 2
      vertex -82.093 38.722 2
      vertex -82.372 40.066 2
    endloop
  endfacet
  facet normal 0 0 1
    outer loop
      vertex -81.418 40.709 2
      vertex -82.372 40.066 2
      vertex -81.028 39.787 2
    endloop
  endfacet
  facet normal 0 0 1
    outer loop
      vertex -81.664 39.358 2
      vertex -82.372 40.066 2
      vertex -82.093 38.722 2
    endloop
  endfacet
  facet normal 0 0 1
    outer loop
      vertex -83.25 37.945 2
      vertex -82.093 38.722 2
      vertex -83.015 39.112 2
    endloop
  endfacet
  facet normal 0 0 1
    outer loop
      vertex -82.25 37.945 2
      vertex -82.093 38.722 2
      vertex -83.25 37.945 2
    endloop
  endfacet
  facet normal 0 0 1
    outer loop
      vertex -83.25 -48.345 2
      vertex -82.25 -47.345 2
      vertex -83.25 37.945 2
    endloop
  endfacet
  facet normal 0 0 1
    outer loop
      vertex -82.093 38.722 1
      vertex -82.25 37.945 1
      vertex -81.025 37.998 1
    endloop
  endfacet
  facet normal 0 0 1
    outer loop
      vertex -80.306 38.716 1
      vertex -80.89171 39.81468 1
      vertex -80.736 38.427 1
    endloop
  endfacet
  facet normal 0.56004 -0.82847 0
    outer loop
      vertex -31.243 -19.614 1
      vertex -31.672 -19.904 1
      vertex -31.672 -19.904 0
    endloop
  endfacet
  facet normal 0.56004 -0.82847 0
    outer loop
      vertex -31.243 -19.614 1
      vertex -31.672 -19.904 0
      vertex -31.243 -19.614 0
    endloop
  endfacet
  facet normal 0 0 -1
    outer loop
      vertex -31.243 -22.101 0
      vertex -27.25 -48.345 0
      vertex -54.618 -39.086 0
    endloop
  endfacet
  facet normal 1 0 0
    outer loop
      vertex -69.033 -44.541 2
      vertex -69.033 -44.541 1
      vertex -69.033 -35.847 1
    endloop
  endfacet
  facet normal 1 0 0
    outer loop
      vertex -69.033 -44.541 2
      vertex -69.033 -35.847 1
      vertex -69.033 -35.847 2
    endloop
  endfacet
  facet normal 0 0 1
    outer loop
      vertex -79.781 38.823 1
      vertex -80.25 39.945 1
      vertex -80.306 38.716 1
    endloop
  endfacet
  facet normal 0 0 1
    outer loop
      vertex -81.92 38.97847 1
      vertex -80.736 38.427 1
      vertex -81.75322 39.22572 1
    endloop
  endfacet
  facet normal 0 0 1
    outer loop
      vertex -30.668 -35.847 2
      vertex -41.467 -35.847 2
      vertex -31.667 -36.846 2
    endloop
  endfacet
  facet normal 0 0 1
    outer loop
      vertex -31.667 -44.541 2
      vertex -30.668 -44.541 2
      vertex -31.667 -36.846 2
    endloop
  endfacet
  facet normal 0 0 1
    outer loop
      vertex -30.668 -35.847 2
      vertex -31.667 -36.846 2
      vertex -30.668 -44.541 2
    endloop
  endfacet
  facet normal 0 0 1
    outer loop
      vertex -27.25 37.945 2
      vertex -28.25 37.945 2
      vertex -28.25 -47.345 2
    endloop
  endfacet
  facet normal 0 0 1
    outer loop
      vertex -27.25 37.945 2
      vertex -28.25 -47.345 2
      vertex -27.25 -48.345 2
    endloop
  endfacet
  facet normal 0.19827 -0.98015 0
    outer loop
      vertex -30.719 -19.508 1
      vertex -31.243 -19.614 1
      vertex -31.243 -19.614 0
    endloop
  endfacet
  facet normal 0.19827 -0.98015 0
    outer loop
      vertex -30.719 -19.508 1
      vertex -31.243 -19.614 0
      vertex -30.719 -19.508 0
    endloop
  endfacet
  facet normal 1 0 0
    outer loop
      vertex -82.25 37.945 2
      vertex -82.25 -47.345 2
      vertex -82.25 0 1
    endloop
  endfacet
  facet normal 0 0 1
    outer loop
      vertex -79.257 38.716 1
      vertex -80.25 39.945 1
      vertex -79.781 38.823 1
    endloop
  endfacet
  facet normal 0 0 1
    outer loop
      vertex -80.89171 39.81468 1
      vertex -81.028 39.787 1
      vertex -80.736 38.427 1
    endloop
  endfacet
  facet normal 0 0 1
    outer loop
      vertex -81.664 39.358 1
      vertex -80.736 38.427 1
      vertex -81.028 39.787 1
    endloop
  endfacet
  facet normal 0 0 1
    outer loop
      vertex -81.75322 39.22572 1
      vertex -80.736 38.427 1
      vertex -81.664 39.358 1
    endloop
  endfacet
  facet normal -0.19791 -0.98022 0
    outer loop
      vertex -30.194 -19.614 1
      vertex -30.719 -19.508 1
      vertex -30.719 -19.508 0
    endloop
  endfacet
  facet normal -0.19791 -0.98022 0
    outer loop
      vertex -30.194 -19.614 1
      vertex -30.719 -19.508 0
      vertex -30.194 -19.614 0
    endloop
  endfacet
  facet normal 0 0 1
    outer loop
      vertex -60.65 -35.847 2
      vertex -59.651 -36.846 2
      vertex -50.851 -36.846 2
    endloop
  endfacet
  facet normal 0 0 1
    outer loop
      vertex -60.65 -35.847 2
      vertex -50.851 -36.846 2
      vertex -49.85 -35.847 2
    endloop
  endfacet
  facet normal 0 1 0
    outer loop
      vertex -79.832 -35.847 2
      vertex -69.033 -35.847 2
      vertex -79.832 -35.847 1
    endloop
  endfacet
  facet normal 0 1 0
    outer loop
      vertex -69.033 -35.847 1
      vertex -79.832 -35.847 1
      vertex -69.033 -35.847 2
    endloop
  endfacet
  facet normal 0 0 1
    outer loop
      vertex -78.827 38.427 1
      vertex -61.136 39.945 1
      vertex -79.257 38.716 1
    endloop
  endfacet
  facet normal 0 0 1
    outer loop
      vertex -80.89171 39.81468 1
      vertex -80.306 38.716 1
      vertex -80.25 39.945 1
    endloop
  endfacet
  facet normal -0.56004 -0.82847 0
    outer loop
      vertex -30.194 -19.614 1
      vertex -30.194 -19.614 0
      vertex -29.765 -19.904 0
    endloop
  endfacet
  facet normal -0.56004 -0.82847 0
    outer loop
      vertex -30.194 -19.614 1
      vertex -29.765 -19.904 0
      vertex -29.765 -19.904 1
    endloop
  endfacet
  facet normal 0 0 1
    outer loop
      vertex -59.651 -44.541 2
      vertex -59.651 -36.846 2
      vertex -60.65 -44.541 2
    endloop
  endfacet
  facet normal 0 0 1
    outer loop
      vertex -60.65 -35.847 2
      vertex -60.65 -44.541 2
      vertex -59.651 -36.846 2
    endloop
  endfacet
  facet normal 0 1 0
    outer loop
      vertex -54.618 -44.578 0
      vertex -55.883 -44.578 0
      vertex -55.883 -44.578 1
    endloop
  endfacet
  facet normal 0 1 0
    outer loop
      vertex -54.618 -44.578 0
      vertex -55.883 -44.578 1
      vertex -54.618 -44.578 1
    endloop
  endfacet
  facet normal 0 0 1
    outer loop
      vertex -78.538 37.998 1
      vertex -61.136 39.945 1
      vertex -78.827 38.427 1
    endloop
  endfacet
  facet normal 0 0 1
    outer loop
      vertex -80.25 39.945 1
      vertex -79.257 38.716 1
      vertex -61.136 39.945 1
    endloop
  endfacet
  facet normal 0 -1 0
    outer loop
      vertex -70.032 -36.846 2
      vertex -78.833 -36.846 2
      vertex -78.833 -36.846 1
    endloop
  endfacet
  facet normal 0 -1 0
    outer loop
      vertex -70.032 -36.846 2
      vertex -78.833 -36.846 1
      vertex -70.032 -36.846 1
    endloop
  endfacet
  facet normal 0 0 1
    outer loop
      vertex -49.85 -35.847 2
      vertex -50.851 -36.846 2
      vertex -49.85 -44.541 2
    endloop
  endfacet
  facet normal 0 0 1
    outer loop
      vertex -50.851 -44.541 2
      vertex -49.85 -44.541 2
      vertex -50.851 -36.846 2
    endloop
  endfacet
  facet normal 1 0 0
    outer loop
      vertex -55.883 -39.086 0
      vertex -55.883 -44.578 1
      vertex -55.883 -44.578 0
    endloop
  endfacet
  facet normal 1 0 0
    outer loop
      vertex -55.883 -39.086 1
      vertex -55.883 -44.578 1
      vertex -55.883 -39.086 0
    endloop
  endfacet
  facet normal 0 0 1
    outer loop
      vertex -78.431 37.473 1
      vertex -61.136 39.945 1
      vertex -78.538 37.998 1
    endloop
  endfacet
  facet normal 0 -1 0
    outer loop
      vertex -54.618 -39.086 1
      vertex -55.883 -39.086 1
      vertex -55.883 -39.086 0
    endloop
  endfacet
  facet normal 0 -1 0
    outer loop
      vertex -54.618 -39.086 1
      vertex -55.883 -39.086 0
      vertex -54.618 -39.086 0
    endloop
  endfacet
  facet normal -1 0 0
    outer loop
      vertex -70.032 -36.846 2
      vertex -70.032 -36.846 1
      vertex -70.032 -44.541 1
    endloop
  endfacet
  facet normal -1 0 0
    outer loop
      vertex -70.032 -36.846 2
      vertex -70.032 -44.541 1
      vertex -70.032 -44.541 2
    endloop
  endfacet
  facet normal -1 0 0
    outer loop
      vertex -54.618 -39.086 1
      vertex -54.618 -39.086 0
      vertex -54.618 -44.578 0
    endloop
  endfacet
  facet normal -1 0 0
    outer loop
      vertex -54.618 -44.578 1
      vertex -54.618 -39.086 1
      vertex -54.618 -44.578 0
    endloop
  endfacet
  facet normal 0 0 1
    outer loop
      vertex -31.667 -36.846 2
      vertex -41.467 -35.847 2
      vertex -40.468 -36.846 2
    endloop
  endfacet
  facet normal 0 1 0
    outer loop
      vertex -28.25 -47.345 1
      vertex -82.25 -47.345 1
      vertex -28.25 -47.345 2
    endloop
  endfacet
  facet normal 0 1 0
    outer loop
      vertex -82.25 -47.345 2
      vertex -28.25 -47.345 2
      vertex -82.25 -47.345 1
    endloop
  endfacet
  facet normal 0 0 1
    outer loop
      vertex -78.538 36.948 1
      vertex -61.136 27.345 1
      vertex -78.431 37.473 1
    endloop
  endfacet
  facet normal 0 -1 0
    outer loop
      vertex -69.033 -44.541 2
      vertex -70.032 -44.541 2
      vertex -70.032 -44.541 1
    endloop
  endfacet
  facet normal 0 -1 0
    outer loop
      vertex -69.033 -44.541 2
      vertex -70.032 -44.541 1
      vertex -69.033 -44.541 1
    endloop
  endfacet
  facet normal 0 0 1
    outer loop
      vertex -41.467 -44.541 2
      vertex -40.468 -44.541 2
      vertex -40.468 -36.846 2
    endloop
  endfacet
  facet normal 0 0 1
    outer loop
      vertex -41.467 -44.541 2
      vertex -40.468 -36.846 2
      vertex -41.467 -35.847 2
    endloop
  endfacet
  facet normal 0.19791 0.98022 0
    outer loop
      vertex -79.781 -22.207 0
      vertex -80.306 -22.101 0
      vertex -80.306 -22.101 1
    endloop
  endfacet
  facet normal 0.19791 0.98022 0
    outer loop
      vertex -79.781 -22.207 0
      vertex -80.306 -22.101 1
      vertex -79.781 -22.207 1
    endloop
  endfacet
  facet normal 0 0 1
    outer loop
      vertex -28.25 -47.345 2
      vertex -82.25 -47.345 2
      vertex -27.25 -48.345 2
    endloop
  endfacet
  facet normal 1 0 0
    outer loop
      vertex -78.833 -44.541 2
      vertex -78.833 -44.541 1
      vertex -78.833 -36.846 1
    endloop
  endfacet
  facet normal 1 0 0
    outer loop
      vertex -78.833 -44.541 2
      vertex -78.833 -36.846 1
      vertex -78.833 -36.846 2
    endloop
  endfacet
  facet normal 0.55781 0.82997 0
    outer loop
      vertex -80.306 -22.101 1
      vertex -80.306 -22.101 0
      vertex -80.736 -21.812 0
    endloop
  endfacet
  facet normal 0.55781 0.82997 0
    outer loop
      vertex -80.306 -22.101 1
      vertex -80.736 -21.812 0
      vertex -80.736 -21.812 1
    endloop
  endfacet
  facet normal 0 0 1
    outer loop
      vertex -78.833 -36.846 2
      vertex -70.032 -36.846 2
      vertex -79.832 -35.847 2
    endloop
  endfacet
  facet normal 0.82936 0.55871 0
    outer loop
      vertex -81.025 -21.383 1
      vertex -80.736 -21.812 1
      vertex -80.736 -21.812 0
    endloop
  endfacet
  facet normal 0.82936 0.55871 0
    outer loop
      vertex -81.025 -21.383 1
      vertex -80.736 -21.812 0
      vertex -81.025 -21.383 0
    endloop
  endfacet
  facet normal 0 -1 0
    outer loop
      vertex -83.25 -48.345 1
      vertex -27.25 -48.345 1
      vertex -27.25 -48.345 2
    endloop
  endfacet
  facet normal 0 0 1
    outer loop
      vertex -55.883 -44.578 1
      vertex -82.25 -47.345 1
      vertex -54.618 -44.578 1
    endloop
  endfacet
  facet normal 0 0 1
    outer loop
      vertex -59.651 -44.541 1
      vertex -82.25 -47.345 1
      vertex -55.883 -44.578 1
    endloop
  endfacet
  facet normal 0.97986 0.1997 0
    outer loop
      vertex -81.132 -20.858 1
      vertex -81.025 -21.383 1
      vertex -81.025 -21.383 0
    endloop
  endfacet
  facet normal 0.97986 0.1997 0
    outer loop
      vertex -81.132 -20.858 1
      vertex -81.025 -21.383 0
      vertex -81.132 -20.858 0
    endloop
  endfacet
  facet normal 0 0 1
    outer loop
      vertex -69.033 -35.847 2
      vertex -70.032 -36.846 2
      vertex -69.033 -44.541 2
    endloop
  endfacet
  facet normal 0 0 1
    outer loop
      vertex -79.832 -35.847 2
      vertex -70.032 -36.846 2
      vertex -69.033 -35.847 2
    endloop
  endfacet
  facet normal 0 0 1
    outer loop
      vertex -70.032 -44.541 2
      vertex -69.033 -44.541 2
      vertex -70.032 -36.846 2
    endloop
  endfacet
  facet normal 0.97986 -0.1997 0
    outer loop
      vertex -81.025 -20.333 1
      vertex -81.132 -20.858 1
      vertex -81.132 -20.858 0
    endloop
  endfacet
  facet normal 0.97986 -0.1997 0
    outer loop
      vertex -81.025 -20.333 1
      vertex -81.132 -20.858 0
      vertex -81.025 -20.333 0
    endloop
  endfacet
  facet normal 0 0 1
    outer loop
      vertex -60.65 -44.541 1
      vertex -82.25 -47.345 1
      vertex -59.651 -44.541 1
    endloop
  endfacet
  facet normal 0.82936 -0.55871 0
    outer loop
      vertex -80.736 -19.904 1
      vertex -81.025 -20.333 1
      vertex -81.025 -20.333 0
    endloop
  endfacet
  facet normal 0.82936 -0.55871 0
    outer loop
      vertex -80.736 -19.904 1
      vertex -81.025 -20.333 0
      vertex -80.736 -19.904 0
    endloop
  endfacet
  facet normal 0 0 1
    outer loop
      vertex -82.25 37.945 2
      vertex -83.25 37.945 2
      vertex -82.25 -47.345 2
    endloop
  endfacet
  facet normal 0 0 1
    outer loop
      vertex -83.25 -48.345 2
      vertex -27.25 -48.345 2
      vertex -82.25 -47.345 2
    endloop
  endfacet
  facet normal 0 0 1
    outer loop
      vertex -54.618 -39.086 1
      vertex -54.618 -44.578 1
      vertex -50.851 -44.541 1
    endloop
  endfacet
  facet normal 0 0 1
    outer loop
      vertex -28.25 -47.345 1
      vertex -50.851 -44.541 1
      vertex -54.618 -44.578 1
    endloop
  endfacet
  facet normal 0.55914 -0.82907 0
    outer loop
      vertex -80.306 -19.614 1
      vertex -80.736 -19.904 1
      vertex -80.736 -19.904 0
    endloop
  endfacet
  facet normal 0.55914 -0.82907 0
    outer loop
      vertex -80.306 -19.614 1
      vertex -80.736 -19.904 0
      vertex -80.306 -19.614 0
    endloop
  endfacet
  facet normal 0 0 1
    outer loop
      vertex -79.832 -44.541 2
      vertex -78.833 -44.541 2
      vertex -78.833 -36.846 2
    endloop
  endfacet
  facet normal 0 0 1
    outer loop
      vertex -79.832 -44.541 2
      vertex -78.833 -36.846 2
      vertex -79.832 -35.847 2
    endloop
  endfacet
  facet normal 0 0 1
    outer loop
      vertex -55.883 -44.578 1
      vertex -55.883 -39.086 1
      vertex -59.651 -44.541 1
    endloop
  endfacet
  facet normal 0.19791 -0.98022 0
    outer loop
      vertex -80.306 -19.614 1
      vertex -80.306 -19.614 0
      vertex -79.781 -19.508 0
    endloop
  endfacet
  facet normal 0.19791 -0.98022 0
    outer loop
      vertex -80.306 -19.614 1
      vertex -79.781 -19.508 0
      vertex -79.781 -19.508 1
    endloop
  endfacet
  facet normal 0 -1 0
    outer loop
      vertex -80.25 39.945 2
      vertex -61.136 39.945 1
      vertex -61.136 39.945 2
    endloop
  endfacet
  facet normal 1 0 0
    outer loop
      vertex -61.136 39.945 1
      vertex -61.136 40.945 1
      vertex -61.136 40.945 2
    endloop
  endfacet
  facet normal 1 0 0
    outer loop
      vertex -61.136 39.945 1
      vertex -61.136 40.945 2
      vertex -61.136 39.945 2
    endloop
  endfacet
  facet normal -0.19827 -0.98015 0
    outer loop
      vertex -79.257 -19.614 1
      vertex -79.781 -19.508 1
      vertex -79.781 -19.508 0
    endloop
  endfacet
  facet normal -0.19827 -0.98015 0
    outer loop
      vertex -79.257 -19.614 1
      vertex -79.781 -19.508 0
      vertex -79.257 -19.614 0
    endloop
  endfacet
  facet normal 0 0 1
    outer loop
      vertex -59.651 -44.541 1
      vertex -55.883 -39.086 1
      vertex -59.651 -36.846 1
    endloop
  endfacet
  facet normal 0 0 1
    outer loop
      vertex -54.618 -39.086 1
      vertex -50.851 -36.846 1
      vertex -55.883 -39.086 1
    endloop
  endfacet
  facet normal -1 0 0
    outer loop
      vertex -48.736 40.945 1
      vertex -48.736 39.945 1
      vertex -48.736 39.945 2
    endloop
  endfacet
  facet normal -1 0 0
    outer loop
      vertex -48.736 40.945 1
      vertex -48.736 39.945 2
      vertex -48.736 40.945 2
    endloop
  endfacet
  facet normal -0.55914 -0.82907 0
    outer loop
      vertex -78.827 -19.904 1
      vertex -79.257 -19.614 1
      vertex -79.257 -19.614 0
    endloop
  endfacet
  facet normal -0.55914 -0.82907 0
    outer loop
      vertex -78.827 -19.904 1
      vertex -79.257 -19.614 0
      vertex -78.827 -19.904 0
    endloop
  endfacet
  facet normal 0 0 1
    outer loop
      vertex -59.651 -36.846 1
      vertex -55.883 -39.086 1
      vertex -50.851 -36.846 1
    endloop
  endfacet
  facet normal 0 0 1
    outer loop
      vertex -50.851 -44.541 1
      vertex -50.851 -36.846 1
      vertex -54.618 -39.086 1
    endloop
  endfacet
  facet normal 0 -1 0
    outer loop
      vertex -83.25 -48.345 1
      vertex -27.25 -48.345 2
      vertex -83.25 -48.345 2
    endloop
  endfacet
  facet normal 0 -1 0
    outer loop
      vertex -48.736 39.945 1
      vertex -30.25 39.945 1
      vertex -48.736 39.945 2
    endloop
  endfacet
  facet normal 0 -1 0
    outer loop
      vertex -30.25 39.945 2
      vertex -48.736 39.945 2
      vertex -30.25 39.945 1
    endloop
  endfacet
  facet normal -0.82936 -0.55871 0
    outer loop
      vertex -78.827 -19.904 1
      vertex -78.827 -19.904 0
      vertex -78.538 -20.333 0
    endloop
  endfacet
  facet normal -0.82936 -0.55871 0
    outer loop
      vertex -78.827 -19.904 1
      vertex -78.538 -20.333 0
      vertex -78.538 -20.333 1
    endloop
  endfacet
  facet normal -0.97986 -0.1997 0
    outer loop
      vertex -78.538 -20.333 1
      vertex -78.538 -20.333 0
      vertex -78.431 -20.858 0
    endloop
  endfacet
  facet normal -0.97986 -0.1997 0
    outer loop
      vertex -78.538 -20.333 1
      vertex -78.431 -20.858 0
      vertex -78.431 -20.858 1
    endloop
  endfacet
  facet normal -1 0 0
    outer loop
      vertex -28.25 37.945 1
      vertex -28.25 35.62355 1
      vertex -28.25 37.945 2
    endloop
  endfacet
  facet normal -0.97986 0.1997 0
    outer loop
      vertex -78.431 -20.858 1
      vertex -78.431 -20.858 0
      vertex -78.538 -21.383 0
    endloop
  endfacet
  facet normal -0.97986 0.1997 0
    outer loop
      vertex -78.431 -20.858 1
      vertex -78.538 -21.383 0
      vertex -78.538 -21.383 1
    endloop
  endfacet
  facet normal 0 0 1
    outer loop
      vertex -49.85 -44.541 1
      vertex -50.851 -44.541 1
      vertex -28.25 -47.345 1
    endloop
  endfacet
  facet normal -0.19902 -0.98 0
    outer loop
      vertex -30.25 39.945 1
      vertex -29.85178 39.86413 1
      vertex -30.25 39.945 2
    endloop
  endfacet
  facet normal -0.19902 -0.98 0
    outer loop
      vertex -29.472 39.787 2
      vertex -30.25 39.945 2
      vertex -29.85178 39.86413 1
    endloop
  endfacet
  facet normal -0.19902 -0.98 0
    outer loop
      vertex -29.472 39.787 2
      vertex -29.85178 39.86413 1
      vertex -29.472 39.787 1
    endloop
  endfacet
  facet normal 0 0 -1
    outer loop
      vertex -31.962 36.948 0
      vertex -48.736 27.345 0
      vertex -32.068 37.473 0
    endloop
  endfacet
  facet normal -0.82936 0.55871 0
    outer loop
      vertex -78.538 -21.383 1
      vertex -78.538 -21.383 0
      vertex -78.827 -21.812 0
    endloop
  endfacet
  facet normal -0.82936 0.55871 0
    outer loop
      vertex -78.538 -21.383 1
      vertex -78.827 -21.812 0
      vertex -78.827 -21.812 1
    endloop
  endfacet
  facet normal 0 0 1
    outer loop
      vertex -41.467 -44.541 1
      vertex -49.85 -44.541 1
      vertex -28.25 -47.345 1
    endloop
  endfacet
  facet normal 0 0 1
    outer loop
      vertex -31.667 -44.541 1
      vertex -40.468 -44.541 1
      vertex -28.25 -47.345 1
    endloop
  endfacet
  facet normal -0.5592 -0.82903 0
    outer loop
      vertex -28.836 39.358 2
      vertex -29.472 39.787 2
      vertex -29.472 39.787 1
    endloop
  endfacet
  facet normal -0.5592 -0.82903 0
    outer loop
      vertex -28.836 39.358 2
      vertex -29.472 39.787 1
      vertex -28.836 39.358 1
    endloop
  endfacet
  facet normal -0.55781 0.82997 0
    outer loop
      vertex -78.827 -21.812 1
      vertex -78.827 -21.812 0
      vertex -79.257 -22.101 0
    endloop
  endfacet
  facet normal -0.55781 0.82997 0
    outer loop
      vertex -78.827 -21.812 1
      vertex -79.257 -22.101 0
      vertex -79.257 -22.101 1
    endloop
  endfacet
  facet normal 0 0 1
    outer loop
      vertex -40.468 -36.846 1
      vertex -40.468 -44.541 1
      vertex -31.667 -44.541 1
    endloop
  endfacet
  facet normal 0 0 1
    outer loop
      vertex -40.468 -44.541 1
      vertex -41.467 -44.541 1
      vertex -28.25 -47.345 1
    endloop
  endfacet
  facet normal 0.19805 0.98019 0
    outer loop
      vertex -30.25 40.945 1
      vertex -30.25 40.945 2
      vertex -30.06236 40.90709 1
    endloop
  endfacet
  facet normal 0.19805 0.98019 0
    outer loop
      vertex -29.85227 40.86464 1
      vertex -30.06236 40.90709 1
      vertex -30.25 40.945 2
    endloop
  endfacet
  facet normal -0.19827 0.98015 0
    outer loop
      vertex -79.257 -22.101 1
      vertex -79.257 -22.101 0
      vertex -79.781 -22.207 0
    endloop
  endfacet
  facet normal -0.19827 0.98015 0
    outer loop
      vertex -79.257 -22.101 1
      vertex -79.781 -22.207 0
      vertex -79.781 -22.207 1
    endloop
  endfacet
  facet normal -0.82903 -0.5592 0
    outer loop
      vertex -28.836 39.358 2
      vertex -28.836 39.358 1
      vertex -28.407 38.722 1
    endloop
  endfacet
  facet normal -0.82903 -0.5592 0
    outer loop
      vertex -28.836 39.358 2
      vertex -28.407 38.722 1
      vertex -28.407 38.722 2
    endloop
  endfacet
  facet normal 0 0 1
    outer loop
      vertex -30.668 -35.847 1
      vertex -31.243 -22.101 1
      vertex -41.467 -35.847 1
    endloop
  endfacet
  facet normal 0 0 -1
    outer loop
      vertex -31.243 38.716 0
      vertex -30.25 40.945 0
      vertex -30.719 38.823 0
    endloop
  endfacet
  facet normal 0 0 1
    outer loop
      vertex -41.467 -35.847 1
      vertex -31.962 -21.383 1
      vertex -49.85 -35.847 1
    endloop
  endfacet
  facet normal 0.19805 0.98019 0
    outer loop
      vertex -30.25 40.945 2
      vertex -29.082 40.709 2
      vertex -29.85227 40.86464 1
    endloop
  endfacet
  facet normal 0.19805 0.98019 0
    outer loop
      vertex -29.082 40.709 1
      vertex -29.85227 40.86464 1
      vertex -29.082 40.709 2
    endloop
  endfacet
  facet normal 0 0 1
    outer loop
      vertex -61.136 27.345 1
      vertex -31.672 -19.904 1
      vertex -48.736 27.345 1
    endloop
  endfacet
  facet normal 0 0 -1
    outer loop
      vertex -30.194 38.716 0
      vertex -30.719 38.823 0
      vertex -30.25 40.945 0
    endloop
  endfacet
  facet normal -0.98019 -0.19806 0
    outer loop
      vertex -28.407 38.722 2
      vertex -28.407 38.722 1
      vertex -28.25 37.945 1
    endloop
  endfacet
  facet normal -0.98019 -0.19806 0
    outer loop
      vertex -28.407 38.722 2
      vertex -28.25 37.945 1
      vertex -28.25 37.945 2
    endloop
  endfacet
  facet normal 0 0 -1
    outer loop
      vertex -29.765 38.427 0
      vertex -30.194 38.716 0
      vertex -29.082 40.709 0
    endloop
  endfacet
  facet normal 0 0 -1
    outer loop
      vertex -29.082 40.709 0
      vertex -30.194 38.716 0
      vertex -30.25 40.945 0
    endloop
  endfacet
  facet normal 0 0 1
    outer loop
      vertex -61.136 39.945 1
      vertex -78.431 37.473 1
      vertex -61.136 27.345 1
    endloop
  endfacet
  facet normal 0.98032 0.19741 0
    outer loop
      vertex -27.25 37.945 1
      vertex -27.485 39.112 1
      vertex -27.485 39.112 2
    endloop
  endfacet
  facet normal 0.98032 0.19741 0
    outer loop
      vertex -27.25 37.945 1
      vertex -27.485 39.112 2
      vertex -27.25 37.945 2
    endloop
  endfacet
  facet normal 0 0 -1
    outer loop
      vertex -28.129 40.066 0
      vertex -27.486 39.112 0
      vertex -29.765 38.427 0
    endloop
  endfacet
  facet normal 0 0 -1
    outer loop
      vertex -29.082 40.709 0
      vertex -28.129 40.066 0
      vertex -29.765 38.427 0
    endloop
  endfacet
  facet normal 0.82923 0.55891 0
    outer loop
      vertex -28.128 40.066 1
      vertex -28.128 40.066 2
      vertex -27.485 39.112 1
    endloop
  endfacet
  facet normal 0.82923 0.55891 0
    outer loop
      vertex -27.485 39.112 1
      vertex -28.128 40.066 2
      vertex -27.485 39.112 2
    endloop
  endfacet
  facet normal 0 0 1
    outer loop
      vertex -49.85 -35.847 1
      vertex -32.068 -20.858 1
      vertex -61.136 27.345 1
    endloop
  endfacet
  facet normal 0.55891 0.82923 0
    outer loop
      vertex -29.082 40.709 1
      vertex -29.082 40.709 2
      vertex -28.128 40.066 1
    endloop
  endfacet
  facet normal 0.55891 0.82923 0
    outer loop
      vertex -29.082 40.709 2
      vertex -28.128 40.066 2
      vertex -28.128 40.066 1
    endloop
  endfacet
  facet normal 0 0 -1
    outer loop
      vertex -29.369 37.473 0
      vertex -29.475 37.998 0
      vertex -27.25 37.945 0
    endloop
  endfacet
  facet normal 0 0 -1
    outer loop
      vertex -29.475 37.998 0
      vertex -29.765 38.427 0
      vertex -27.486 39.112 0
    endloop
  endfacet
  facet normal 0 0 -1
    outer loop
      vertex -27.25 37.945 0
      vertex -29.475 37.998 0
      vertex -27.486 39.112 0
    endloop
  endfacet
  facet normal 0 0 1
    outer loop
      vertex -29.764 36.519 1
      vertex -28.25 35.62355 1
      vertex -29.475 36.948 1
    endloop
  endfacet
  facet normal -0.82923 0.55891 0
    outer loop
      vertex -83.015 39.112 1
      vertex -83.015 39.112 2
      vertex -82.372 40.066 1
    endloop
  endfacet
  facet normal -0.82923 0.55891 0
    outer loop
      vertex -82.372 40.066 2
      vertex -82.372 40.066 1
      vertex -83.015 39.112 2
    endloop
  endfacet
  facet normal -0.98032 0.19741 0
    outer loop
      vertex -83.25 37.945 2
      vertex -83.015 39.112 2
      vertex -83.25 37.945 1
    endloop
  endfacet
  facet normal -0.98032 0.19741 0
    outer loop
      vertex -83.015 39.112 1
      vertex -83.25 37.945 1
      vertex -83.015 39.112 2
    endloop
  endfacet
  facet normal 0 0 1
    outer loop
      vertex -48.736 27.345 1
      vertex -31.672 36.519 1
      vertex -31.962 36.948 1
    endloop
  endfacet
  facet normal 0 0 1
    outer loop
      vertex -48.736 27.345 1
      vertex -31.962 36.948 1
      vertex -32.068 37.473 1
    endloop
  endfacet
  facet normal 0.98019 -0.19806 0
    outer loop
      vertex -82.093 38.722 2
      vertex -82.25 37.945 2
      vertex -82.25 37.945 1
    endloop
  endfacet
  facet normal 0.98019 -0.19806 0
    outer loop
      vertex -82.093 38.722 2
      vertex -82.25 37.945 1
      vertex -82.093 38.722 1
    endloop
  endfacet
  facet normal 0 0 1
    outer loop
      vertex -31.962 37.998 1
      vertex -48.736 39.945 1
      vertex -32.068 37.473 1
    endloop
  endfacet
  facet normal 0.82903 -0.5592 0
    outer loop
      vertex -82.093 38.722 1
      vertex -81.92 38.97847 1
      vertex -82.093 38.722 2
    endloop
  endfacet
  facet normal 0.82903 -0.5592 0
    outer loop
      vertex -81.664 39.358 2
      vertex -82.093 38.722 2
      vertex -81.92 38.97847 1
    endloop
  endfacet
  facet normal 0.82903 -0.5592 0
    outer loop
      vertex -81.664 39.358 2
      vertex -81.92 38.97847 1
      vertex -81.75322 39.22572 1
    endloop
  endfacet
  facet normal 0.82903 -0.5592 0
    outer loop
      vertex -81.664 39.358 2
      vertex -81.75322 39.22572 1
      vertex -81.664 39.358 1
    endloop
  endfacet
  facet normal 0 0 -1
    outer loop
      vertex -27.25 37.945 0
      vertex -27.25 32.768 0
      vertex -29.475 36.948 0
    endloop
  endfacet
  facet normal 0 0 -1
    outer loop
      vertex -29.475 36.948 0
      vertex -29.369 37.473 0
      vertex -27.25 37.945 0
    endloop
  endfacet
  facet normal 0 0 1
    outer loop
      vertex -81.132 37.473 1
      vertex -82.25 37.945 1
      vertex -81.025 36.948 1
    endloop
  endfacet
  facet normal 0 0 1
    outer loop
      vertex -80.736 36.519 1
      vertex -81.025 36.948 1
      vertex -82.25 0 1
    endloop
  endfacet
  facet normal 0 0 1
    outer loop
      vertex -80.306 36.229 1
      vertex -80.736 36.519 1
      vertex -82.25 0 1
    endloop
  endfacet
  facet normal 0 0 -1
    outer loop
      vertex -30.193 36.229 0
      vertex -29.764 36.519 0
      vertex -27.25 32.768 0
    endloop
  endfacet
  facet normal 0 0 -1
    outer loop
      vertex -29.764 36.519 0
      vertex -29.475 36.948 0
      vertex -27.25 32.768 0
    endloop
  endfacet
  facet normal 0 0 1
    outer loop
      vertex -48.736 27.345 1
      vertex -32.068 37.473 1
      vertex -48.736 39.945 1
    endloop
  endfacet
  facet normal 1 0 0
    outer loop
      vertex -61.136 40.945 1
      vertex -61.136 39.945 1
      vertex -61.136 40.945 0
    endloop
  endfacet
  facet normal 0 0 -1
    outer loop
      vertex -31.243 36.229 0
      vertex -30.719 36.123 0
      vertex -48.736 27.345 0
    endloop
  endfacet
  facet normal 0 0 -1
    outer loop
      vertex -27.25 32.768 0
      vertex -48.736 27.345 0
      vertex -30.719 36.123 0
    endloop
  endfacet
  facet normal 0 0 -1
    outer loop
      vertex -30.719 36.123 0
      vertex -30.193 36.229 0
      vertex -27.25 32.768 0
    endloop
  endfacet
  facet normal -1 0 0
    outer loop
      vertex -48.736 40.945 0
      vertex -48.736 39.945 1
      vertex -48.736 40.945 1
    endloop
  endfacet
  facet normal 0 1 0
    outer loop
      vertex -48.736 27.345 0
      vertex -61.136 27.345 0
      vertex -61.136 27.345 1
    endloop
  endfacet
  facet normal 0 1 0
    outer loop
      vertex -48.736 27.345 0
      vertex -61.136 27.345 1
      vertex -48.736 27.345 1
    endloop
  endfacet
  facet normal 0 0 1
    outer loop
      vertex -78.827 36.519 1
      vertex -61.136 27.345 1
      vertex -78.538 36.948 1
    endloop
  endfacet
  facet normal 0 0 1
    outer loop
      vertex -82.25 0 1
      vertex -61.136 27.345 1
      vertex -79.257 36.229 1
    endloop
  endfacet
  facet normal 0 0 -1
    outer loop
      vertex -31.672 38.427 0
      vertex -48.736 40.945 0
      vertex -31.243 38.716 0
    endloop
  endfacet
  facet normal 0 0 -1
    outer loop
      vertex -31.962 37.998 0
      vertex -48.736 40.945 0
      vertex -31.672 38.427 0
    endloop
  endfacet
  facet normal 0 0 -1
    outer loop
      vertex -31.962 37.998 0
      vertex -32.068 37.473 0
      vertex -48.736 40.945 0
    endloop
  endfacet
  facet normal 0 0 -1
    outer loop
      vertex -31.672 36.519 0
      vertex -48.736 27.345 0
      vertex -31.962 36.948 0
    endloop
  endfacet
  facet normal 0 0 -1
    outer loop
      vertex -31.672 36.519 0
      vertex -31.243 36.229 0
      vertex -48.736 27.345 0
    endloop
  endfacet
  facet normal 0 0 -1
    outer loop
      vertex -30.25 40.945 0
      vertex -31.243 38.716 0
      vertex -48.736 40.945 0
    endloop
  endfacet
  facet normal 1 0 0
    outer loop
      vertex -61.136 39.945 1
      vertex -61.136 27.345 1
      vertex -61.136 27.345 0
    endloop
  endfacet
  facet normal 1 0 0
    outer loop
      vertex -61.136 39.945 1
      vertex -61.136 27.345 0
      vertex -61.136 40.945 0
    endloop
  endfacet
  facet normal 0 0 -1
    outer loop
      vertex -30.719 -19.508 0
      vertex -31.243 -19.614 0
      vertex -48.736 27.345 0
    endloop
  endfacet
  facet normal 0 0 -1
    outer loop
      vertex -31.243 -19.614 0
      vertex -31.672 -19.904 0
      vertex -48.736 27.345 0
    endloop
  endfacet
  facet normal -1 0 0
    outer loop
      vertex -48.736 27.345 1
      vertex -48.736 39.945 1
      vertex -48.736 27.345 0
    endloop
  endfacet
  facet normal -1 0 0
    outer loop
      vertex -48.736 40.945 0
      vertex -48.736 27.345 0
      vertex -48.736 39.945 1
    endloop
  endfacet
  facet normal 0 0 1
    outer loop
      vertex -79.257 36.229 1
      vertex -61.136 27.345 1
      vertex -78.827 36.519 1
    endloop
  endfacet
  facet normal 0 0 1
    outer loop
      vertex -79.257 36.229 1
      vertex -79.781 36.123 1
      vertex -82.25 0 1
    endloop
  endfacet
  facet normal 0 0 1
    outer loop
      vertex -82.25 0 1
      vertex -79.781 36.123 1
      vertex -80.306 36.229 1
    endloop
  endfacet
  facet normal 0 0 -1
    outer loop
      vertex -31.672 -19.904 0
      vertex -31.962 -20.333 0
      vertex -61.136 27.345 0
    endloop
  endfacet
  facet normal 0 0 -1
    outer loop
      vertex -61.136 27.345 0
      vertex -48.736 27.345 0
      vertex -31.672 -19.904 0
    endloop
  endfacet
  facet normal -0.19805 0.98019 0
    outer loop
      vertex -80.49053 40.8964 1
      vertex -80.25 40.945 0
      vertex -81.418 40.709 0
    endloop
  endfacet
  facet normal -0.19805 0.98019 0
    outer loop
      vertex -80.49053 40.8964 1
      vertex -81.418 40.709 0
      vertex -81.418 40.709 1
    endloop
  endfacet
  facet normal 0 0 -1
    outer loop
      vertex -48.736 40.945 0
      vertex -32.068 37.473 0
      vertex -48.736 27.345 0
    endloop
  endfacet
  facet normal 0 0 -1
    outer loop
      vertex -27.25 32.768 0
      vertex -30.719 -19.508 0
      vertex -48.736 27.345 0
    endloop
  endfacet
  facet normal 0 0 -1
    outer loop
      vertex -61.136 40.945 0
      vertex -61.136 27.345 0
      vertex -78.431 37.473 0
    endloop
  endfacet
  facet normal 0 0 -1
    outer loop
      vertex -80.25 40.945 0
      vertex -61.136 40.945 0
      vertex -79.257 38.716 0
    endloop
  endfacet
  facet normal 0 0 -1
    outer loop
      vertex -78.827 -19.904 0
      vertex -79.257 -19.614 0
      vertex -61.136 27.345 0
    endloop
  endfacet
  facet normal 0 0 -1
    outer loop
      vertex -78.538 36.948 0
      vertex -78.431 37.473 0
      vertex -61.136 27.345 0
    endloop
  endfacet
  facet normal 0 0 -1
    outer loop
      vertex -29.369 -20.858 0
      vertex -28.88115 -20.50147 0
      vertex -29.475 -21.383 0
    endloop
  endfacet
  facet normal 0 0 -1
    outer loop
      vertex -27.25 -48.345 0
      vertex -29.475 -21.383 0
      vertex -28.88115 -20.50147 0
    endloop
  endfacet
  facet normal 0 0 -1
    outer loop
      vertex -29.475 -20.333 0
      vertex -29.765 -19.904 0
      vertex -28.88115 -20.50147 0
    endloop
  endfacet
  facet normal 0 0 -1
    outer loop
      vertex -27.25 32.768 0
      vertex -28.88115 -20.50147 0
      vertex -29.765 -19.904 0
    endloop
  endfacet
  facet normal 0 0 -1
    outer loop
      vertex -30.194 -19.614 0
      vertex -27.25 32.768 0
      vertex -29.765 -19.904 0
    endloop
  endfacet
  facet normal 0 0 -1
    outer loop
      vertex -30.194 -19.614 0
      vertex -30.719 -19.508 0
      vertex -27.25 32.768 0
    endloop
  endfacet
  facet normal 0 0 -1
    outer loop
      vertex -27.25 -48.345 0
      vertex -28.88115 -20.50147 0
      vertex -27.25 32.768 0
    endloop
  endfacet
  facet normal -0.19805 0.98019 0
    outer loop
      vertex -80.25 40.945 0
      vertex -80.49053 40.8964 1
      vertex -80.25 40.945 1
    endloop
  endfacet
  facet normal 0 0 1
    outer loop
      vertex -82.25 0 1
      vertex -81.025 36.948 1
      vertex -82.25 37.945 1
    endloop
  endfacet
  facet normal 0 0 1
    outer loop
      vertex -81.132 37.473 1
      vertex -81.025 37.998 1
      vertex -82.25 37.945 1
    endloop
  endfacet
  facet normal 1 0 0
    outer loop
      vertex -82.25 -47.345 1
      vertex -82.25 0 1
      vertex -82.25 -47.345 2
    endloop
  endfacet
  facet normal 0 0 -1
    outer loop
      vertex -27.25 -48.345 0
      vertex -83.25 -48.345 0
      vertex -54.618 -44.578 0
    endloop
  endfacet
  facet normal -0.55931 0.82896 0
    outer loop
      vertex -81.8194 40.43817 1
      vertex -81.418 40.709 0
      vertex -81.92 40.3703 1
    endloop
  endfacet
  facet normal -1 0 0
    outer loop
      vertex -79.832 -35.847 1
      vertex -79.832 -44.541 1
      vertex -79.832 -44.541 2
    endloop
  endfacet
  facet normal -1 0 0
    outer loop
      vertex -79.832 -35.847 1
      vertex -79.832 -44.541 2
      vertex -79.832 -35.847 2
    endloop
  endfacet
  facet normal 0 0 -1
    outer loop
      vertex -55.883 -44.578 0
      vertex -54.618 -44.578 0
      vertex -83.25 -48.345 0
    endloop
  endfacet
  facet normal 0 0 -1
    outer loop
      vertex -54.618 -39.086 0
      vertex -55.883 -39.086 0
      vertex -31.962 -20.333 0
    endloop
  endfacet
  facet normal -0.55931 0.82896 0
    outer loop
      vertex -81.418 40.709 0
      vertex -81.8194 40.43817 1
      vertex -81.418 40.709 1
    endloop
  endfacet
  facet normal 0 -1 0
    outer loop
      vertex -78.833 -44.541 2
      vertex -79.832 -44.541 2
      vertex -79.832 -44.541 1
    endloop
  endfacet
  facet normal 0 -1 0
    outer loop
      vertex -78.833 -44.541 2
      vertex -79.832 -44.541 1
      vertex -78.833 -44.541 1
    endloop
  endfacet
  facet normal 0 0 -1
    outer loop
      vertex -32.068 -20.858 0
      vertex -31.962 -21.383 0
      vertex -54.618 -39.086 0
    endloop
  endfacet
  facet normal 0 0 -1
    outer loop
      vertex -31.962 -20.333 0
      vertex -32.068 -20.858 0
      vertex -54.618 -39.086 0
    endloop
  endfacet
  facet normal 0 0 -1
    outer loop
      vertex -31.962 -21.383 0
      vertex -31.672 -21.812 0
      vertex -54.618 -39.086 0
    endloop
  endfacet
  facet normal 0 0 -1
    outer loop
      vertex -31.672 -21.812 0
      vertex -31.243 -22.101 0
      vertex -54.618 -39.086 0
    endloop
  endfacet
  facet normal 0 0 -1
    outer loop
      vertex -54.618 -44.578 0
      vertex -54.618 -39.086 0
      vertex -27.25 -48.345 0
    endloop
  endfacet
  facet normal 0.82936 0.55871 0
    outer loop
      vertex -80.736 36.519 0
      vertex -81.025 36.948 0
      vertex -80.736 36.519 1
    endloop
  endfacet
  facet normal 0.82936 0.55871 0
    outer loop
      vertex -81.025 36.948 1
      vertex -80.736 36.519 1
      vertex -81.025 36.948 0
    endloop
  endfacet
  facet normal 0 0 -1
    outer loop
      vertex -82.372 40.066 1
      vertex -81.418 40.709 1
      vertex -81.8194 40.43817 1
    endloop
  endfacet
  facet normal 0 0 -1
    outer loop
      vertex -82.372 40.066 1
      vertex -81.8194 40.43817 1
      vertex -81.92 40.3703 1
    endloop
  endfacet
  facet normal 0.97986 0.1997 0
    outer loop
      vertex -81.132 37.473 1
      vertex -81.025 36.948 1
      vertex -81.025 36.948 0
    endloop
  endfacet
  facet normal 0.97986 0.1997 0
    outer loop
      vertex -81.132 37.473 1
      vertex -81.025 36.948 0
      vertex -81.132 37.473 0
    endloop
  endfacet
  facet normal 0 0 -1
    outer loop
      vertex -82.25 40.14764 1
      vertex -82.372 40.066 1
      vertex -81.92 40.3703 1
    endloop
  endfacet
  facet normal 0 0 -1
    outer loop
      vertex -82.25 40.14764 1
      vertex -82.371 40.066 1
      vertex -82.372 40.066 1
    endloop
  endfacet
  facet normal 0 0 -1
    outer loop
      vertex -81.025 -21.383 0
      vertex -83.25 -22.90874 0
      vertex -81.132 -20.858 0
    endloop
  endfacet
  facet normal 0 0 -1
    outer loop
      vertex -81.025 -20.333 0
      vertex -81.132 -20.858 0
      vertex -83.25 -22.90874 0
    endloop
  endfacet
  facet normal 0 0 1
    outer loop
      vertex -60.65 -35.847 1
      vertex -69.033 -35.847 1
      vertex -60.65 -44.541 1
    endloop
  endfacet
  facet normal 0 0 1
    outer loop
      vertex -31.672 -19.904 1
      vertex -61.136 27.345 1
      vertex -31.962 -20.333 1
    endloop
  endfacet
  facet normal 0 0 1
    outer loop
      vertex -49.85 -35.847 1
      vertex -78.431 -20.858 1
      vertex -60.65 -35.847 1
    endloop
  endfacet
  facet normal 0 0 1
    outer loop
      vertex -69.033 -35.847 1
      vertex -69.033 -44.541 1
      vertex -60.65 -44.541 1
    endloop
  endfacet
  facet normal 0 0 1
    outer loop
      vertex -69.033 -44.541 1
      vertex -82.25 -47.345 1
      vertex -60.65 -44.541 1
    endloop
  endfacet
  facet normal 0 0 -1
    outer loop
      vertex -83.25 -22.90874 0
      vertex -83.25 37.945 0
      vertex -81.025 -20.333 0
    endloop
  endfacet
  facet normal 0 0 -1
    outer loop
      vertex -82.372 40.066 1
      vertex -83.014 39.112 1
      vertex -83.015 39.112 1
    endloop
  endfacet
  facet normal 0 0 -1
    outer loop
      vertex -82.371 40.066 1
      vertex -83.014 39.112 1
      vertex -82.372 40.066 1
    endloop
  endfacet
  facet normal 0 0 -1
    outer loop
      vertex -83.25 37.945 1
      vertex -83.015 39.112 1
      vertex -83.014 39.112 1
    endloop
  endfacet
  facet normal 0 0 -1
    outer loop
      vertex -80.736 -19.904 0
      vertex -81.025 -20.333 0
      vertex -83.25 37.945 0
    endloop
  endfacet
  facet normal 0 0 -1
    outer loop
      vertex -80.306 -19.614 0
      vertex -80.736 -19.904 0
      vertex -83.25 37.945 0
    endloop
  endfacet
  facet normal 0 0 -1
    outer loop
      vertex -80.736 36.519 0
      vertex -80.306 36.229 0
      vertex -80.306 -19.614 0
    endloop
  endfacet
  facet normal 0 0 -1
    outer loop
      vertex -83.25 37.945 0
      vertex -81.025 36.948 0
      vertex -80.306 -19.614 0
    endloop
  endfacet
  facet normal 0 0 -1
    outer loop
      vertex -81.025 36.948 0
      vertex -80.736 36.519 0
      vertex -80.306 -19.614 0
    endloop
  endfacet
  facet normal 0 0 -1
    outer loop
      vertex -78.827 -19.904 0
      vertex -61.136 27.345 0
      vertex -31.962 -20.333 0
    endloop
  endfacet
  facet normal 0 0 1
    outer loop
      vertex -29.475 -20.333 1
      vertex -28.25 35.62355 1
      vertex -29.765 -19.904 1
    endloop
  endfacet
  facet normal -0.82936 0.55871 0
    outer loop
      vertex -78.827 36.519 1
      vertex -78.538 36.948 1
      vertex -78.827 36.519 0
    endloop
  endfacet
  facet normal -0.82936 0.55871 0
    outer loop
      vertex -78.538 36.948 0
      vertex -78.827 36.519 0
      vertex -78.538 36.948 1
    endloop
  endfacet
  facet normal 0 0 -1
    outer loop
      vertex -78.538 -20.333 0
      vertex -78.827 -19.904 0
      vertex -31.962 -20.333 0
    endloop
  endfacet
  facet normal 0 0 -1
    outer loop
      vertex -78.431 -20.858 0
      vertex -78.538 -20.333 0
      vertex -31.962 -20.333 0
    endloop
  endfacet
  facet normal 0 0 1
    outer loop
      vertex -29.369 -20.858 1
      vertex -28.25 35.62355 1
      vertex -29.475 -20.333 1
    endloop
  endfacet
  facet normal 0 0 -1
    outer loop
      vertex -78.538 -21.383 0
      vertex -78.431 -20.858 0
      vertex -31.962 -20.333 0
    endloop
  endfacet
  facet normal 0 0 -1
    outer loop
      vertex -31.962 -20.333 0
      vertex -55.883 -39.086 0
      vertex -78.538 -21.383 0
    endloop
  endfacet
  facet normal 0.97986 -0.1997 0
    outer loop
      vertex -81.025 37.998 1
      vertex -81.132 37.473 1
      vertex -81.132 37.473 0
    endloop
  endfacet
  facet normal 0.97986 -0.1997 0
    outer loop
      vertex -81.025 37.998 1
      vertex -81.132 37.473 0
      vertex -81.025 37.998 0
    endloop
  endfacet
  facet normal 0 0 -1
    outer loop
      vertex -83.25 -22.90874 0
      vertex -81.025 -21.383 0
      vertex -80.736 -21.812 0
    endloop
  endfacet
  facet normal 0 0 -1
    outer loop
      vertex -80.306 -22.101 0
      vertex -83.25 -48.345 0
      vertex -80.736 -21.812 0
    endloop
  endfacet
  facet normal 0 0 -1
    outer loop
      vertex -55.883 -39.086 0
      vertex -83.25 -48.345 0
      vertex -79.257 -22.101 0
    endloop
  endfacet
  facet normal 0 0 -1
    outer loop
      vertex -79.257 -22.101 0
      vertex -78.827 -21.812 0
      vertex -55.883 -39.086 0
    endloop
  endfacet
  facet normal 0 0 -1
    outer loop
      vertex -78.827 -21.812 0
      vertex -78.538 -21.383 0
      vertex -55.883 -39.086 0
    endloop
  endfacet
  facet normal 0 0 -1
    outer loop
      vertex -79.781 -22.207 0
      vertex -79.257 -22.101 0
      vertex -83.25 -48.345 0
    endloop
  endfacet
  facet normal 0 0 -1
    outer loop
      vertex -83.25 -22.90874 0
      vertex -80.736 -21.812 0
      vertex -83.25 -48.345 0
    endloop
  endfacet
  facet normal 0 0 -1
    outer loop
      vertex -55.883 -39.086 0
      vertex -55.883 -44.578 0
      vertex -83.25 -48.345 0
    endloop
  endfacet
  facet normal 0 0 -1
    outer loop
      vertex -80.306 -22.101 0
      vertex -79.781 -22.207 0
      vertex -83.25 -48.345 0
    endloop
  endfacet
  facet normal 0 0 1
    outer loop
      vertex -29.475 -21.383 1
      vertex -28.25 -47.345 1
      vertex -29.369 -20.858 1
    endloop
  endfacet
  facet normal 0.82936 -0.55871 0
    outer loop
      vertex -80.736 38.427 1
      vertex -81.025 37.998 1
      vertex -81.025 37.998 0
    endloop
  endfacet
  facet normal 0.82936 -0.55871 0
    outer loop
      vertex -80.736 38.427 1
      vertex -81.025 37.998 0
      vertex -80.736 38.427 0
    endloop
  endfacet
  facet normal 0 0 1
    outer loop
      vertex -28.25 35.62355 1
      vertex -30.193 36.229 1
      vertex -30.719 -19.508 1
    endloop
  endfacet
  facet normal 1 0 0
    outer loop
      vertex -27.25 32.768 0
      vertex -27.25 37.945 0
      vertex -27.25 37.945 1
    endloop
  endfacet
  facet normal 1 0 0
    outer loop
      vertex -27.25 -48.345 1
      vertex -27.25 32.768 0
      vertex -27.25 37.945 1
    endloop
  endfacet
  facet normal 0.55781 -0.82997 0
    outer loop
      vertex -80.306 38.716 1
      vertex -80.736 38.427 1
      vertex -80.736 38.427 0
    endloop
  endfacet
  facet normal 0.55781 -0.82997 0
    outer loop
      vertex -80.306 38.716 1
      vertex -80.736 38.427 0
      vertex -80.306 38.716 0
    endloop
  endfacet
  facet normal 0 0 1
    outer loop
      vertex -30.193 -22.101 1
      vertex -30.668 -35.847 1
      vertex -29.764 -21.812 1
    endloop
  endfacet
  facet normal 0 0 1
    outer loop
      vertex -28.25 35.62355 1
      vertex -29.369 -20.858 1
      vertex -28.25 -47.345 1
    endloop
  endfacet
  facet normal 0.1997 -0.97986 0
    outer loop
      vertex -79.781 38.823 1
      vertex -80.306 38.716 1
      vertex -80.306 38.716 0
    endloop
  endfacet
  facet normal 0.1997 -0.97986 0
    outer loop
      vertex -79.781 38.823 1
      vertex -80.306 38.716 0
      vertex -79.781 38.823 0
    endloop
  endfacet
  facet normal 0 0 1
    outer loop
      vertex -30.719 -22.207 1
      vertex -30.668 -35.847 1
      vertex -30.193 -22.101 1
    endloop
  endfacet
  facet normal 0 0 1
    outer loop
      vertex -29.764 -21.812 1
      vertex -30.668 -35.847 1
      vertex -29.475 -21.383 1
    endloop
  endfacet
  facet normal 0 0 1
    outer loop
      vertex -31.243 -22.101 1
      vertex -30.668 -35.847 1
      vertex -30.719 -22.207 1
    endloop
  endfacet
  facet normal -0.20007 -0.97978 0
    outer loop
      vertex -79.257 38.716 1
      vertex -79.781 38.823 1
      vertex -79.781 38.823 0
    endloop
  endfacet
  facet normal -0.20007 -0.97978 0
    outer loop
      vertex -79.257 38.716 1
      vertex -79.781 38.823 0
      vertex -79.257 38.716 0
    endloop
  endfacet
  facet normal 0 0 1
    outer loop
      vertex -31.672 -21.812 1
      vertex -41.467 -35.847 1
      vertex -31.243 -22.101 1
    endloop
  endfacet
  facet normal -0.55781 -0.82997 0
    outer loop
      vertex -78.827 38.427 1
      vertex -79.257 38.716 1
      vertex -79.257 38.716 0
    endloop
  endfacet
  facet normal -0.55781 -0.82997 0
    outer loop
      vertex -78.827 38.427 1
      vertex -79.257 38.716 0
      vertex -78.827 38.427 0
    endloop
  endfacet
  facet normal 0 0 1
    outer loop
      vertex -28.25 -47.345 1
      vertex -29.475 -21.383 1
      vertex -30.668 -35.847 1
    endloop
  endfacet
  facet normal 0 0 1
    outer loop
      vertex -31.962 -21.383 1
      vertex -41.467 -35.847 1
      vertex -31.672 -21.812 1
    endloop
  endfacet
  facet normal 0 0 1
    outer loop
      vertex -32.068 -20.858 1
      vertex -49.85 -35.847 1
      vertex -31.962 -21.383 1
    endloop
  endfacet
  facet normal 0 0 1
    outer loop
      vertex -82.25 0 1
      vertex -82.25 -47.345 1
      vertex -81.132 -20.858 1
    endloop
  endfacet
  facet normal 0 0 1
    outer loop
      vertex -31.962 -20.333 1
      vertex -61.136 27.345 1
      vertex -32.068 -20.858 1
    endloop
  endfacet
  facet normal 0 0 1
    outer loop
      vertex -81.025 -20.333 1
      vertex -82.25 0 1
      vertex -81.132 -20.858 1
    endloop
  endfacet
  facet normal 0 0 1
    outer loop
      vertex -80.306 -19.614 1
      vertex -82.25 0 1
      vertex -80.736 -19.904 1
    endloop
  endfacet
  facet normal 0 0 1
    outer loop
      vertex -81.025 -21.383 1
      vertex -81.132 -20.858 1
      vertex -82.25 -47.345 1
    endloop
  endfacet
  facet normal 0 0 1
    outer loop
      vertex -79.781 -19.508 1
      vertex -82.25 0 1
      vertex -80.306 -19.614 1
    endloop
  endfacet
  facet normal 0 0 1
    outer loop
      vertex -81.025 -20.333 1
      vertex -80.736 -19.904 1
      vertex -82.25 0 1
    endloop
  endfacet
  facet normal 0 0 1
    outer loop
      vertex -79.257 -19.614 1
      vertex -82.25 0 1
      vertex -79.781 -19.508 1
    endloop
  endfacet
  facet normal 0 0 1
    outer loop
      vertex -61.136 27.345 1
      vertex -82.25 0 1
      vertex -78.827 -19.904 1
    endloop
  endfacet
  facet normal 0 0 1
    outer loop
      vertex -78.538 -20.333 1
      vertex -61.136 27.345 1
      vertex -78.827 -19.904 1
    endloop
  endfacet
  facet normal 0 0 1
    outer loop
      vertex -79.257 -19.614 1
      vertex -78.827 -19.904 1
      vertex -82.25 0 1
    endloop
  endfacet
  facet normal 0 0 1
    outer loop
      vertex -78.431 -20.858 1
      vertex -49.85 -35.847 1
      vertex -78.538 -20.333 1
    endloop
  endfacet
  facet normal 0 0 1
    outer loop
      vertex -78.538 -21.383 1
      vertex -60.65 -35.847 1
      vertex -78.431 -20.858 1
    endloop
  endfacet
  facet normal 0 0 1
    outer loop
      vertex -78.827 -21.812 1
      vertex -69.033 -35.847 1
      vertex -78.538 -21.383 1
    endloop
  endfacet
  facet normal 0 0 1
    outer loop
      vertex -61.136 27.345 1
      vertex -78.538 -20.333 1
      vertex -49.85 -35.847 1
    endloop
  endfacet
  facet normal 0 0 1
    outer loop
      vertex -79.257 -22.101 1
      vertex -79.781 -22.207 1
      vertex -79.832 -35.847 1
    endloop
  endfacet
  facet normal 0 0 1
    outer loop
      vertex -78.827 -21.812 1
      vertex -79.257 -22.101 1
      vertex -69.033 -35.847 1
    endloop
  endfacet
  facet normal 0 0 1
    outer loop
      vertex -60.65 -35.847 1
      vertex -78.538 -21.383 1
      vertex -69.033 -35.847 1
    endloop
  endfacet
  facet normal 0 0 1
    outer loop
      vertex -79.832 -35.847 1
      vertex -69.033 -35.847 1
      vertex -79.257 -22.101 1
    endloop
  endfacet
  facet normal 0 0 1
    outer loop
      vertex -79.781 -22.207 1
      vertex -80.306 -22.101 1
      vertex -79.832 -35.847 1
    endloop
  endfacet
  facet normal 0 0 1
    outer loop
      vertex -80.306 -22.101 1
      vertex -80.736 -21.812 1
      vertex -79.832 -35.847 1
    endloop
  endfacet
  facet normal 0 0 1
    outer loop
      vertex -80.736 -21.812 1
      vertex -81.025 -21.383 1
      vertex -79.832 -35.847 1
    endloop
  endfacet
  facet normal 0 0 1
    outer loop
      vertex -82.25 -47.345 1
      vertex -79.832 -35.847 1
      vertex -81.025 -21.383 1
    endloop
  endfacet
  facet normal 0 0 1
    outer loop
      vertex -70.032 -36.846 1
      vertex -78.833 -36.846 1
      vertex -70.032 -44.541 1
    endloop
  endfacet
  facet normal 0 0 1
    outer loop
      vertex -78.833 -36.846 1
      vertex -78.833 -44.541 1
      vertex -70.032 -44.541 1
    endloop
  endfacet
  facet normal 0 0 1
    outer loop
      vertex -28.25 -47.345 1
      vertex -54.618 -44.578 1
      vertex -82.25 -47.345 1
    endloop
  endfacet
  facet normal 0 0 1
    outer loop
      vertex -70.032 -44.541 1
      vertex -82.25 -47.345 1
      vertex -69.033 -44.541 1
    endloop
  endfacet
  facet normal 0 0 1
    outer loop
      vertex -78.833 -44.541 1
      vertex -82.25 -47.345 1
      vertex -70.032 -44.541 1
    endloop
  endfacet
  facet normal 0 0 1
    outer loop
      vertex -79.832 -35.847 1
      vertex -82.25 -47.345 1
      vertex -79.832 -44.541 1
    endloop
  endfacet
  facet normal 0 0 1
    outer loop
      vertex -82.25 -47.345 1
      vertex -78.833 -44.541 1
      vertex -79.832 -44.541 1
    endloop
  endfacet
  facet normal 1 0 0
    outer loop
      vertex -27.25 37.945 2
      vertex -27.25 -48.345 2
      vertex -27.25 37.945 1
    endloop
  endfacet
  facet normal 1 0 0
    outer loop
      vertex -27.25 -48.345 1
      vertex -27.25 37.945 1
      vertex -27.25 -48.345 2
    endloop
  endfacet
  facet normal 0 1 0
    outer loop
      vertex -80.25 40.945 1
      vertex -61.136 40.945 2
      vertex -61.136 40.945 1
    endloop
  endfacet
  facet normal 0 1 0
    outer loop
      vertex -30.25 40.945 1
      vertex -48.736 40.945 1
      vertex -48.736 40.945 2
    endloop
  endfacet
  facet normal 0 1 0
    outer loop
      vertex -30.25 40.945 2
      vertex -30.25 40.945 1
      vertex -48.736 40.945 2
    endloop
  endfacet
endsolid stl_item0
